<svg width="50" height="50" viewBox="0 0 50 50" fill="none" xmlns="http://www.w3.org/2000/svg">
<g clip-path="url(#clip0_1137_5073)">
<path d="M46.3673 21.6548C46.1771 16.2351 43.9823 11.1671 40.1285 7.31324C36.0891 3.27308 30.7206 1.04883 25.0129 1.04883C13.4848 1.04883 4.06525 10.2246 3.65922 21.6548C1.9 22.4366 0.668701 24.1974 0.668701 26.2439V31.8818C0.668701 34.6502 2.92091 36.9032 5.69016 36.9032C7.48199 36.9032 8.93921 35.446 8.93921 33.6542V24.4707C8.93921 22.7883 7.64891 21.4165 6.00847 21.2535C6.61403 11.2952 14.9039 3.37789 25.0129 3.37789C30.0995 3.37789 34.8827 5.3607 38.4826 8.96066C41.7883 12.2664 43.723 16.5751 44.0141 21.2542C42.3753 21.4188 41.0873 22.7899 41.0873 24.4707V33.6534C41.0873 35.3497 42.3978 36.7301 44.0576 36.8737V39.1942C44.0576 41.8075 41.9312 43.9331 39.318 43.9331H35.8081C35.6357 43.4409 35.3655 42.986 34.9867 42.6087C34.3229 41.9418 33.4379 41.5746 32.4954 41.5746H28.8776C28.3582 41.5746 27.8597 41.6848 27.4033 41.8975C26.158 42.4697 25.3537 43.7258 25.3537 45.0976C25.3537 46.0401 25.7209 46.9252 26.3862 47.5874C27.0516 48.2543 27.9366 48.6215 28.8776 48.6215H32.4954C33.9953 48.6215 35.3174 47.6519 35.8104 46.2622H39.318C43.216 46.2622 46.3867 43.0915 46.3867 39.1942V36.4591C48.135 35.6727 49.357 33.9181 49.357 31.8802V26.2423C49.357 24.1974 48.1257 22.4366 46.3673 21.6548ZM6.60937 24.4707V33.6534C6.60937 34.1604 6.19712 34.5734 5.68939 34.5734C4.205 34.5734 2.99699 33.3654 2.99699 31.881V26.2431C2.99699 24.7579 4.205 23.5507 5.68939 23.5507C6.19712 23.5507 6.60937 23.9637 6.60937 24.4707ZM33.6638 45.3476C33.5481 45.8957 33.0559 46.294 32.4946 46.294H28.8768C28.5585 46.294 28.2596 46.1698 28.0313 45.9415C27.8062 45.7172 27.682 45.4175 27.682 45.0992C27.682 44.6342 27.9545 44.2095 28.3815 44.0131C28.5336 43.9417 28.7005 43.9052 28.8768 43.9052H32.4946C32.8129 43.9052 33.1118 44.0286 33.3393 44.2569C33.5644 44.4812 33.6886 44.7809 33.6886 45.0992C33.6894 45.1846 33.6801 45.27 33.6638 45.3476ZM47.028 31.881C47.028 33.3654 45.8199 34.5734 44.3356 34.5734C43.8286 34.5734 43.4156 34.1611 43.4156 33.6534V24.4707C43.4156 23.9637 43.8278 23.5507 44.3356 23.5507C45.8199 23.5507 47.028 24.7587 47.028 26.2431V31.881Z" fill="url(#paint0_linear_1137_5073)"/>
<path d="M32.5538 32.281C35.2749 32.281 37.4883 30.0669 37.4883 27.3465V17.2919C37.4883 15.9768 36.9744 14.7377 36.0412 13.8045C35.108 12.8714 33.8697 12.3574 32.5538 12.3574H17.4724C14.7512 12.3574 12.5378 14.5708 12.5378 17.2919V27.3465C12.5378 30.0676 14.7512 32.281 17.4724 32.281H17.5647V34.8865C17.5647 35.8802 18.1571 36.7621 19.0732 37.134C19.369 37.2528 19.6764 37.3118 19.9808 37.3118C20.615 37.3118 21.233 37.0603 21.6856 36.5921L26.02 32.281H32.5538ZM24.7196 30.2904L20.0289 34.9556C20.0079 34.9773 19.9924 34.9936 19.9481 34.9742C19.8946 34.9525 19.8946 34.9175 19.8946 34.8865V31.1165C19.8946 30.4737 19.3736 29.9519 18.73 29.9519H17.4731C16.0361 29.9519 14.8677 28.7828 14.8677 27.3465V17.2919C14.8677 15.8549 16.0361 14.6865 17.4731 14.6865H32.5546C33.2487 14.6865 33.9016 14.9582 34.3953 15.4512C34.8891 15.945 35.16 16.5986 35.16 17.2919V27.3465C35.16 28.7835 33.9909 29.9519 32.5546 29.9519H25.541C25.2328 29.9519 24.9378 30.0738 24.7196 30.2904Z" fill="url(#paint1_linear_1137_5073)"/>
<path d="M19.3555 20.7891C18.4084 20.7891 17.6375 21.5608 17.6375 22.5071C17.6375 23.4535 18.4091 24.2252 19.3555 24.2252C20.3035 24.2252 21.0752 23.4535 21.0752 22.5071C21.0752 21.5608 20.3042 20.7891 19.3555 20.7891Z" fill="url(#paint2_linear_1137_5073)"/>
<path d="M25.0123 20.7891C24.0651 20.7891 23.2942 21.5608 23.2942 22.5071C23.2942 23.4535 24.0659 24.2252 25.0123 24.2252C25.961 24.2252 26.7319 23.4535 26.7319 22.5071C26.7319 21.5608 25.961 20.7891 25.0123 20.7891Z" fill="url(#paint3_linear_1137_5073)"/>
<path d="M30.6685 20.7891C29.7214 20.7891 28.9504 21.5608 28.9504 22.5071C28.9504 23.4535 29.7221 24.2252 30.6685 24.2252C31.6164 24.2252 32.3881 23.4535 32.3881 22.5071C32.3881 21.5608 31.6164 20.7891 30.6685 20.7891Z" fill="url(#paint4_linear_1137_5073)"/>
</g>
<defs>
<linearGradient id="paint0_linear_1137_5073" x1="32.0904" y1="9.95896" x2="16.1428" y2="64.117" gradientUnits="userSpaceOnUse">
<stop offset="0.0300935" stop-color="#B0905A"/>
<stop offset="1" stop-color="#8E5B00"/>
</linearGradient>
<linearGradient id="paint1_linear_1137_5073" x1="28.64" y1="17.0313" x2="20.1097" y2="45.3321" gradientUnits="userSpaceOnUse">
<stop offset="0.0300935" stop-color="#B0905A"/>
<stop offset="1" stop-color="#8E5B00"/>
</linearGradient>
<linearGradient id="paint2_linear_1137_5073" x1="19.856" y1="21.4326" x2="18.682" y2="25.33" gradientUnits="userSpaceOnUse">
<stop offset="0.0300935" stop-color="#B0905A"/>
<stop offset="1" stop-color="#8E5B00"/>
</linearGradient>
<linearGradient id="paint3_linear_1137_5073" x1="25.5128" y1="21.4326" x2="24.3388" y2="25.33" gradientUnits="userSpaceOnUse">
<stop offset="0.0300935" stop-color="#B0905A"/>
<stop offset="1" stop-color="#8E5B00"/>
</linearGradient>
<linearGradient id="paint4_linear_1137_5073" x1="31.169" y1="21.4326" x2="29.995" y2="25.33" gradientUnits="userSpaceOnUse">
<stop offset="0.0300935" stop-color="#B0905A"/>
<stop offset="1" stop-color="#8E5B00"/>
</linearGradient>
<clipPath id="clip0_1137_5073">
<rect width="49.6867" height="49.6867" fill="white" transform="translate(0.169189 -0.00585938)"/>
</clipPath>
</defs>
</svg>
