<svg xmlns="http://www.w3.org/2000/svg" width="61" height="61" fill="none" viewBox="0 0 61 61"><g clip-path="url(#clip0_1137_5048)"><path fill="url(#paint0_linear_1137_5048)" d="M57.3209 5.72705H3.42998C1.77653 5.72705 0.436035 7.06754 0.436035 8.72099V26.6847C0.436035 27.2358 0.882904 27.6826 1.43398 27.6826C1.98505 27.6826 2.43192 27.2357 2.43192 26.6847V8.72099C2.43192 8.1698 2.87879 7.72305 3.42986 7.72305H5.42586V15.7068C5.42586 17.9115 7.21311 19.6987 9.41775 19.6987H51.3329C53.5376 19.6987 55.3248 17.9115 55.3248 15.7068V7.72293H57.3209C57.8721 7.72293 58.3189 8.1698 58.3189 8.72088V29.6785C58.3156 32.4329 56.0835 34.665 53.3289 34.6684H50.335V32.6724C50.335 30.4678 48.5478 28.6805 46.3431 28.6805H35.2256C34.6745 28.6805 34.2277 29.1274 34.2277 29.6785C34.2277 30.2297 34.6745 30.6764 35.2256 30.6764H46.3431C47.4455 30.6764 48.3391 31.57 48.3391 32.6724V34.6684H37.1418C36.5906 34.6684 36.1438 35.1152 36.1438 35.6664C36.1438 36.2175 36.5907 36.6643 37.1418 36.6643H53.3291C57.1854 36.6599 60.3106 33.5348 60.3149 29.6785V8.72088C60.3149 7.06742 58.9745 5.72705 57.3209 5.72705ZM53.3291 15.7068C53.3291 16.8092 52.4354 17.7028 51.3331 17.7028H9.41786C8.31548 17.7028 7.42186 16.8092 7.42186 15.7068V7.72293H53.3289V15.7068H53.3291Z"/><path fill="url(#paint1_linear_1137_5048)" d="M10.4159 15.7073H50.3351C50.8863 15.7073 51.333 15.2606 51.333 14.7094C51.333 14.1582 50.8863 13.7114 50.3351 13.7114H10.4159C9.86472 13.7114 9.41797 14.1582 9.41797 14.7094C9.41797 15.2606 9.86484 15.7073 10.4159 15.7073Z"/><path fill="url(#paint2_linear_1137_5048)" d="M10.4159 11.7151H50.3351C50.8863 11.7151 51.333 11.2683 51.333 10.7172C51.333 10.1661 50.8863 9.71924 50.3351 9.71924H10.4159C9.86472 9.71924 9.41797 10.1661 9.41797 10.7172C9.41797 11.2683 9.86484 11.7151 10.4159 11.7151Z"/><path fill="url(#paint3_linear_1137_5048)" d="M50.3349 26.6858C50.886 26.6858 51.3328 26.239 51.3328 25.6879C51.3328 25.1367 50.886 24.6899 50.3349 24.6899C49.7837 24.6899 49.3369 25.1367 49.3369 25.6879C49.3369 26.239 49.7837 26.6858 50.3349 26.6858Z"/><path fill="url(#paint4_linear_1137_5048)" d="M54.327 26.6858C54.8782 26.6858 55.325 26.239 55.325 25.6879C55.325 25.1367 54.8782 24.6899 54.327 24.6899C53.7759 24.6899 53.3291 25.1367 53.3291 25.6879C53.3291 26.239 53.7759 26.6858 54.327 26.6858Z"/><path fill="url(#paint5_linear_1137_5048)" d="M36.3633 52.6323C36.3633 53.1835 36.8101 53.6302 37.3612 53.6302C37.9124 53.6302 38.3592 53.1834 38.3592 52.6323C38.3685 52.052 38.6377 51.5065 39.0927 51.1463C39.8964 50.421 40.355 49.3891 40.355 48.3065C40.355 47.2239 39.8964 46.192 39.0927 45.4667C38.6305 45.1131 38.3594 44.5642 38.3594 43.9823C38.3594 43.4003 38.6305 42.8515 39.0927 42.4978C39.892 41.7695 40.3499 40.7399 40.3552 39.6586C40.3552 39.1074 39.9084 38.6606 39.3572 38.6606C38.806 38.6606 38.3593 39.1074 38.3593 39.6586C38.35 40.2383 38.0807 40.7832 37.6258 41.1426C36.8222 41.8676 36.3635 42.8991 36.3635 43.9813C36.3635 45.0636 36.8222 46.0951 37.6258 46.8201C38.0881 47.1743 38.3592 47.7236 38.3592 48.3061C38.3592 48.8885 38.0881 49.4378 37.6258 49.792C36.8269 50.5211 36.3692 51.5509 36.3633 52.6323Z"/><path fill="url(#paint6_linear_1137_5048)" d="M43.3491 52.6323C43.3491 53.1835 43.796 53.6302 44.3471 53.6302C44.8983 53.6302 45.345 53.1834 45.345 52.6323C45.3544 52.052 45.6236 51.5065 46.0785 51.1463C46.8822 50.421 47.3409 49.3891 47.3409 48.3065C47.3409 47.2239 46.8822 46.192 46.0785 45.4667C45.6163 45.1131 45.3452 44.5642 45.3452 43.9823C45.3452 43.4003 45.6163 42.8515 46.0785 42.4978C46.8779 41.7695 47.3357 40.7399 47.341 39.6586C47.341 39.1074 46.8943 38.6606 46.3431 38.6606C45.7919 38.6606 45.3451 39.1074 45.3451 39.6586C45.3359 40.2383 45.0665 40.7832 44.6116 41.1426C43.808 41.8676 43.3494 42.8991 43.3494 43.9813C43.3494 45.0636 43.808 46.0951 44.6116 46.8201C45.0739 47.1743 45.345 47.7236 45.345 48.3061C45.345 48.8885 45.0739 49.4378 44.6116 49.792C43.8128 50.5211 43.3551 51.5509 43.3491 52.6323Z"/><path fill="url(#paint7_linear_1137_5048)" d="M49.3369 52.6323C49.3369 53.1835 49.7837 53.6302 50.3349 53.6302C50.886 53.6302 51.3328 53.1834 51.3328 52.6323C51.3422 52.052 51.6114 51.5065 52.0663 51.1463C52.87 50.421 53.3287 49.3891 53.3287 48.3065C53.3287 47.2239 52.87 46.192 52.0663 45.4667C51.6041 45.1131 51.333 44.5642 51.333 43.9823C51.333 43.4003 51.6041 42.8515 52.0663 42.4978C52.8657 41.7695 53.3235 40.7399 53.3288 39.6586C53.3288 39.1074 52.8819 38.6606 52.3309 38.6606C51.7797 38.6606 51.3329 39.1074 51.3329 39.6586C51.3237 40.2383 51.0543 40.7832 50.5994 41.1426C49.7958 41.8676 49.3371 42.8991 49.3371 43.9813C49.3371 45.0636 49.7958 46.0951 50.5994 46.8201C51.0617 47.1743 51.3328 47.7236 51.3328 48.3061C51.3328 48.8885 51.0617 49.4378 50.5994 49.792C49.8006 50.5211 49.3429 51.5509 49.3369 52.6323Z"/><path fill="url(#paint8_linear_1137_5048)" d="M17.4017 55.6252C26.7716 55.6252 34.3675 48.0293 34.3675 38.6594C34.3675 29.2896 26.7716 21.6938 17.4017 21.6938C8.03188 21.6938 0.436035 29.2897 0.436035 38.6596C0.446444 48.0251 8.0362 55.6147 17.4017 55.6252ZM17.4017 23.6898C25.6692 23.6898 32.3715 30.3921 32.3715 38.6596C32.3715 46.9271 25.6692 53.6293 17.4017 53.6293C9.13426 53.6293 2.43204 46.9271 2.43204 38.6596C2.44139 30.3958 9.138 23.6992 17.4017 23.6898Z"/><path fill="url(#paint9_linear_1137_5048)" d="M12.1623 38.1055L15.787 39.2821L13.5485 42.3628L8.09454 43.2271C7.73843 43.2787 7.43751 43.518 7.30723 43.8534C7.17694 44.1888 7.23729 44.5684 7.46523 44.8469C7.69317 45.1253 8.05338 45.2596 8.40797 45.1981L11.8899 44.6492L10.0167 47.221C9.69268 47.6669 9.79138 48.2911 10.2373 48.6151C10.6832 48.9392 11.3074 48.8405 11.6315 48.3946L13.5097 45.8208L14.0606 49.3018C14.137 49.7862 14.5542 50.1432 15.0446 50.144C15.0974 50.1442 15.1502 50.1398 15.2022 50.1311C15.7464 50.0452 16.1181 49.5346 16.0326 48.9903L15.1683 43.5363L17.4018 40.4576L19.6403 43.5394L18.776 48.9934C18.6905 49.5376 19.0622 50.0481 19.6064 50.1341C19.6584 50.1429 19.7113 50.1472 19.764 50.1471C20.2544 50.1463 20.6716 49.7892 20.748 49.3048L21.2989 45.8239L23.169 48.3976C23.3792 48.6866 23.7276 48.8414 24.083 48.8039C24.4383 48.7664 24.7467 48.542 24.8918 48.2156C25.037 47.8892 24.997 47.51 24.7868 47.221L22.9136 44.6492L26.3956 45.2011C26.7502 45.2625 27.1104 45.1284 27.3383 44.8499C27.5663 44.5714 27.6266 44.1918 27.4963 43.8564C27.3661 43.521 27.0651 43.2817 26.709 43.2301L21.255 42.3659L19.0166 39.2852L22.6412 38.1085L27.5583 40.6144C27.8773 40.7893 28.266 40.7766 28.573 40.5818C28.88 40.3868 29.0567 40.0403 29.0341 39.6774C29.0116 39.3144 28.7933 38.9925 28.4646 38.8371L25.326 37.2404L28.3549 36.2574C28.7101 36.1608 28.9831 35.8765 29.0655 35.5178C29.1478 35.1591 29.0261 34.7842 28.7487 34.5423C28.4712 34.3005 28.0832 34.2309 27.7391 34.3613L24.7053 35.3453L26.302 32.2017C26.5525 31.7106 26.3575 31.1093 25.8664 30.8588C25.3753 30.6083 24.7741 30.8034 24.5236 31.2945L22.0157 36.2165L18.4 37.3841V33.5719L22.3041 29.6678C22.6529 29.2725 22.6341 28.6742 22.2613 28.3015C21.8883 27.9289 21.29 27.9105 20.8949 28.2596L18.3997 30.7543V27.5668C18.3997 27.0156 17.9528 26.5688 17.4017 26.5688C16.8505 26.5688 16.4038 27.0157 16.4038 27.5668V30.7523L13.9088 28.2574C13.6581 27.998 13.2872 27.8939 12.9382 27.9852C12.5892 28.0766 12.3168 28.3491 12.2255 28.6979C12.1341 29.0469 12.2382 29.4179 12.4976 29.6685L16.4037 33.5716V37.3839L12.783 36.2083L10.2751 31.2862C10.0246 30.7951 9.42345 30.6 8.93226 30.8505C8.44118 31.101 8.24611 31.7022 8.49662 32.1934L10.0984 35.337L7.06456 34.353C6.72037 34.2226 6.33244 34.2922 6.05504 34.534C5.77763 34.7759 5.65588 35.1508 5.73822 35.5095C5.82055 35.8682 6.09363 36.1525 6.44881 36.2491L9.47772 37.2321L6.33911 38.8289C5.86593 39.0882 5.68465 39.6767 5.92966 40.1574C6.17468 40.638 6.75744 40.837 7.24524 40.6063L12.1623 38.1055Z"/></g><defs><linearGradient id="paint0_linear_1137_5048" x1="39.08" x2="33.261" y1="11.521" y2="48.889" gradientUnits="userSpaceOnUse"><stop offset=".03" stop-color="#B0905A"/><stop offset="1" stop-color="#8E5B00"/></linearGradient><linearGradient id="paint1_linear_1137_5048" x1="36.468" x2="36.433" y1="14.085" y2="16.554" gradientUnits="userSpaceOnUse"><stop offset=".03" stop-color="#B0905A"/><stop offset="1" stop-color="#8E5B00"/></linearGradient><linearGradient id="paint2_linear_1137_5048" x1="36.468" x2="36.433" y1="10.093" y2="12.562" gradientUnits="userSpaceOnUse"><stop offset=".03" stop-color="#B0905A"/><stop offset="1" stop-color="#8E5B00"/></linearGradient><linearGradient id="paint3_linear_1137_5048" x1="50.625" x2="49.943" y1="25.064" y2="27.327" gradientUnits="userSpaceOnUse"><stop offset=".03" stop-color="#B0905A"/><stop offset="1" stop-color="#8E5B00"/></linearGradient><linearGradient id="paint4_linear_1137_5048" x1="54.617" x2="53.935" y1="25.064" y2="27.327" gradientUnits="userSpaceOnUse"><stop offset=".03" stop-color="#B0905A"/><stop offset="1" stop-color="#8E5B00"/></linearGradient><linearGradient id="paint5_linear_1137_5048" x1="38.94" x2="29.749" y1="41.464" y2="49.597" gradientUnits="userSpaceOnUse"><stop offset=".03" stop-color="#B0905A"/><stop offset="1" stop-color="#8E5B00"/></linearGradient><linearGradient id="paint6_linear_1137_5048" x1="45.925" x2="36.734" y1="41.464" y2="49.597" gradientUnits="userSpaceOnUse"><stop offset=".03" stop-color="#B0905A"/><stop offset="1" stop-color="#8E5B00"/></linearGradient><linearGradient id="paint7_linear_1137_5048" x1="51.913" x2="42.722" y1="41.464" y2="49.597" gradientUnits="userSpaceOnUse"><stop offset=".03" stop-color="#B0905A"/><stop offset="1" stop-color="#8E5B00"/></linearGradient><linearGradient id="paint8_linear_1137_5048" x1="22.334" x2="10.737" y1="28.049" y2="66.532" gradientUnits="userSpaceOnUse"><stop offset=".03" stop-color="#B0905A"/><stop offset="1" stop-color="#8E5B00"/></linearGradient><linearGradient id="paint9_linear_1137_5048" x1="20.8" x2="12.684" y1="30.985" y2="57.688" gradientUnits="userSpaceOnUse"><stop offset=".03" stop-color="#B0905A"/><stop offset="1" stop-color="#8E5B00"/></linearGradient><clipPath id="clip0_1137_5048"><rect width="59.879" height="59.879" fill="#fff" transform="translate(0.436035 0.734863)"/></clipPath></defs></svg>