<svg xmlns="http://www.w3.org/2000/svg" width="66" height="65" fill="none" viewBox="0 0 66 65"><g clip-path="url(#clip0_1137_5005)"><path fill="url(#paint0_linear_1137_5005)" fill-rule="evenodd" d="M25.1205 34.4437V25.4499H29.3552V36.4345C29.3552 36.9963 29.8118 37.4523 30.373 37.4523C30.9348 37.4523 31.3908 36.9963 31.3908 36.4345V24.4321C31.3908 23.8703 30.9355 23.4143 30.373 23.4143H24.1027C23.5409 23.4143 23.085 23.8703 23.085 24.4321V34.4437C23.085 35.0055 23.5416 35.4615 24.1027 35.4615C24.6646 35.4615 25.1205 35.0055 25.1205 34.4437Z" clip-rule="evenodd"/><path fill="url(#paint1_linear_1137_5005)" fill-rule="evenodd" d="M31.3915 3.93673C31.3915 3.14218 31.076 2.37952 30.5142 1.81771C29.9517 1.25521 29.1897 0.939697 28.3945 0.939697C23.7927 0.939697 20.0615 4.67021 20.0615 9.27195V22.9455C20.0615 24.329 21.1824 25.45 22.5659 25.45H30.3737C30.9362 25.45 31.3915 24.9947 31.3915 24.4322V3.93673ZM29.3559 3.93673V23.4144H22.5659C22.3068 23.4144 22.0971 23.2047 22.0971 22.9455V9.27195C22.0971 5.79453 24.9164 2.97526 28.3938 2.97526C28.6489 2.97526 28.8945 3.07636 29.0743 3.25685C29.2548 3.43734 29.3559 3.68161 29.3559 3.93673Z" clip-rule="evenodd"/><path fill="url(#paint2_linear_1137_5005)" fill-rule="evenodd" d="M7.11274 34.3271C7.11274 29.1988 7.11274 22.9374 7.11274 18.8798C7.11274 17.3722 5.89004 16.1495 4.38237 16.1495H4.38101C3.99697 16.1495 3.6862 15.838 3.6862 15.4546C3.6862 12.4502 3.6862 6.28103 3.6862 3.44412C3.6862 3.18493 3.89587 2.97526 4.15506 2.97526H13.94C14.1992 2.97526 14.4096 3.18493 14.4096 3.44412V15.4546C14.4096 15.838 14.0981 16.1495 13.7141 16.1495C12.2057 16.1495 10.9824 17.3722 10.9824 18.8798V31.7012C10.9824 32.263 11.439 32.719 12.0001 32.719C12.562 32.719 13.0179 32.263 13.0179 31.7012V18.8798C13.0179 18.4965 13.3294 18.185 13.7134 18.185C15.2218 18.185 16.4451 16.9623 16.4451 15.4546C16.4451 12.4502 16.4451 6.28103 16.4451 3.44412C16.4451 2.06062 15.3235 0.939697 13.94 0.939697H4.15506C2.77155 0.939697 1.65063 2.06062 1.65063 3.44412V15.4546C1.65063 16.9623 2.87265 18.185 4.38101 18.185H4.38237C4.76573 18.185 5.07717 18.4965 5.07717 18.8798V34.3271C5.07717 34.8882 5.53314 35.3449 6.09496 35.3449C6.65677 35.3449 7.11274 34.8882 7.11274 34.3271Z" clip-rule="evenodd"/><path fill="url(#paint3_linear_1137_5005)" fill-rule="evenodd" d="M5.83203 1.95748V11.7065C5.83203 12.2683 6.288 12.7243 6.84981 12.7243C7.41095 12.7243 7.8676 12.2683 7.8676 11.7065V1.95748C7.8676 1.39566 7.41095 0.939697 6.84981 0.939697C6.288 0.939697 5.83203 1.39566 5.83203 1.95748Z" clip-rule="evenodd"/><path fill="url(#paint4_linear_1137_5005)" fill-rule="evenodd" d="M9.84448 1.95748V11.7065C9.84448 12.2683 10.3004 12.7243 10.8623 12.7243C11.4241 12.7243 11.8801 12.2683 11.8801 11.7065V1.95748C11.8801 1.39566 11.4241 0.939697 10.8623 0.939697C10.3004 0.939697 9.84448 1.39566 9.84448 1.95748Z" clip-rule="evenodd"/><path fill="url(#paint5_linear_1137_5005)" fill-rule="evenodd" d="M7.79973 54.3932C5.68749 52.4479 4.36369 49.6598 4.36369 46.5657C4.36369 40.6925 9.13167 35.9245 15.0043 35.9245C16.421 35.9245 17.7727 36.202 19.0096 36.7048C19.5293 36.9172 20.1237 36.6668 20.3354 36.1464C20.5478 35.6259 20.2968 35.0315 19.777 34.8198C18.3033 34.22 16.6924 33.8889 15.0043 33.8889C8.00804 33.8889 2.32812 39.5695 2.32812 46.5657C2.32812 50.2522 3.90433 53.5729 6.42029 55.89C6.83351 56.2707 7.47811 56.2442 7.85876 55.831C8.23941 55.4178 8.21295 54.7738 7.79973 54.3932Z" clip-rule="evenodd"/><path fill="url(#paint6_linear_1137_5005)" fill-rule="evenodd" d="M6.96582 42.8208V44.5571C6.96582 45.1189 7.42179 45.5749 7.9836 45.5749C8.54542 45.5749 9.00139 45.1189 9.00139 44.5571V42.8208C9.00139 42.2596 8.54542 41.803 7.9836 41.803C7.42179 41.803 6.96582 42.2596 6.96582 42.8208Z" clip-rule="evenodd"/><path fill="url(#paint7_linear_1137_5005)" fill-rule="evenodd" d="M9.53418 49.1059V50.8416C9.53418 51.4034 9.99015 51.8594 10.552 51.8594C11.1138 51.8594 11.5697 51.4034 11.5697 50.8416V49.1059C11.5697 48.5441 11.1138 48.0881 10.552 48.0881C9.99015 48.0881 9.53418 48.5441 9.53418 49.1059Z" clip-rule="evenodd"/><path fill="url(#paint8_linear_1137_5005)" fill-rule="evenodd" d="M17.6147 54.4315C16.0765 52.8214 15.1313 50.6406 15.1313 48.2414C15.1313 43.2936 19.1481 39.276 24.0966 39.276C26.6187 39.276 28.8992 40.3203 30.529 41.9996C30.9198 42.4027 31.5651 42.4129 31.9681 42.0213C32.3712 41.6298 32.3807 40.9852 31.9898 40.5822C29.9896 38.5215 27.1913 37.2405 24.0966 37.2405C18.0252 37.2405 13.0957 42.1699 13.0957 48.2414C13.0957 51.1862 14.2553 53.8616 16.1423 55.8374C16.5304 56.2439 17.1757 56.2588 17.5814 55.8707C17.9878 55.4826 18.0028 54.838 17.6147 54.4315Z" clip-rule="evenodd"/><path fill="url(#paint9_linear_1137_5005)" fill-rule="evenodd" d="M13.2358 56.154C28.8601 56.1452 54.2918 56.1452 62.0188 56.1452C62.1552 56.1452 62.2807 56.2205 62.3452 56.3406C62.4069 56.4573 62.4022 56.5978 62.333 56.7097C60.659 59.1266 58.4566 61.0007 55.3571 61.9771C55.3557 61.9771 9.66538 61.9771 9.66538 61.9771C6.56589 61.0007 4.36408 59.1273 2.71052 56.707C2.63996 56.5998 2.63385 56.4634 2.69424 56.3501C2.75463 56.2361 2.87337 56.1649 3.00297 56.1649H3.00432C4.56153 56.1621 6.80066 56.1594 9.51271 56.1574C10.0745 56.1567 10.5298 55.7001 10.5298 55.1389C10.5291 54.5771 10.0725 54.1212 9.51068 54.1218C6.79794 54.1239 4.55746 54.1266 3.00093 54.1293C2.12225 54.1293 1.31277 54.6144 0.898191 55.3913C0.483613 56.1683 0.530431 57.1107 1.021 57.8422C1.02236 57.8449 1.0244 57.8476 1.02575 57.8496C2.96158 60.6845 5.55625 62.8585 9.2162 63.9692C9.31187 63.9977 9.41161 64.0126 9.51203 64.0126H55.5097C55.6095 64.0126 55.7092 63.9977 55.8049 63.9692C59.4628 62.8592 62.0561 60.6872 64.0082 57.8659C64.011 57.8618 64.0143 57.8578 64.0171 57.8537C64.511 57.1162 64.5592 56.1655 64.1405 55.3825C63.7226 54.5988 62.9063 54.1096 62.0181 54.1096C54.2911 54.1096 28.8587 54.1096 13.2344 54.1184C12.6726 54.1191 12.2173 54.5751 12.2173 55.1369C12.218 55.6987 12.6739 56.1547 13.2358 56.154Z" clip-rule="evenodd"/><path fill="url(#paint10_linear_1137_5005)" fill-rule="evenodd" d="M19.3115 42.8208V44.5571C19.3115 45.1189 19.7682 45.5749 20.3293 45.5749C20.8911 45.5749 21.3471 45.1189 21.3471 44.5571V42.8208C21.3471 42.2596 20.8911 41.803 20.3293 41.803C19.7682 41.803 19.3115 42.2596 19.3115 42.8208Z" clip-rule="evenodd"/><path fill="url(#paint11_linear_1137_5005)" fill-rule="evenodd" d="M17.793 49.1059V50.8416C17.793 51.4034 18.2489 51.8594 18.8108 51.8594C19.3726 51.8594 19.8285 51.4034 19.8285 50.8416V49.1059C19.8285 48.5441 19.3726 48.0881 18.8108 48.0881C18.2489 48.0881 17.793 48.5441 17.793 49.1059Z" clip-rule="evenodd"/><path fill="url(#paint12_linear_1137_5005)" fill-rule="evenodd" d="M24.3975 45.5942V47.3305C24.3975 47.8917 24.8534 48.3483 25.4152 48.3483C25.9771 48.3483 26.433 47.8917 26.433 47.3305V45.5942C26.433 45.0324 25.9771 44.5764 25.4152 44.5764C24.8534 44.5764 24.3975 45.0324 24.3975 45.5942Z" clip-rule="evenodd"/><path fill="url(#paint13_linear_1137_5005)" fill-rule="evenodd" d="M30.0582 54.5495C29.3661 53.5521 28.9604 52.3423 28.9604 51.0388C28.9604 47.6347 31.724 44.8717 35.1275 44.8717C36.1697 44.8717 37.1529 45.1309 38.0139 45.5883C38.5099 45.8522 39.1267 45.6636 39.3899 45.1676C39.6539 44.6716 39.4653 44.0548 38.9693 43.7909C37.8232 43.1822 36.515 42.8362 35.1275 42.8362C30.6004 42.8362 26.9248 46.5117 26.9248 51.0388C26.9248 52.7738 27.4649 54.384 28.3857 55.7105C28.7066 56.1719 29.341 56.2859 29.8024 55.9656C30.2638 55.6453 30.3785 55.0109 30.0582 54.5495Z" clip-rule="evenodd"/><path fill="url(#paint14_linear_1137_5005)" fill-rule="evenodd" d="M31.6172 48.2368V49.9731C31.6172 50.5349 32.0732 50.9909 32.635 50.9909C33.1968 50.9909 33.6528 50.5349 33.6528 49.9731V48.2368C33.6528 47.675 33.1968 47.219 32.635 47.219C32.0732 47.219 31.6172 47.675 31.6172 48.2368Z" clip-rule="evenodd"/><path fill="url(#paint15_linear_1137_5005)" fill-rule="evenodd" d="M35.3818 50.8422V52.1776C35.3818 52.7394 35.8378 53.1954 36.3996 53.1954C36.9614 53.1954 37.4174 52.7394 37.4174 52.1776V50.8422C37.4174 50.2804 36.9614 49.8245 36.3996 49.8245C35.8378 49.8245 35.3818 50.2804 35.3818 50.8422Z" clip-rule="evenodd"/><path fill="url(#paint16_linear_1137_5005)" fill-rule="evenodd" d="M41.6057 20.6576C41.6057 20.6576 39.5986 22.6212 39.8015 25.1331C39.889 26.2167 40.362 27.4177 41.6105 28.597C41.7048 28.6886 42.9186 29.895 42.7938 31.4386C42.7388 32.1185 42.3982 32.8486 41.6138 33.5889C41.2054 33.9743 41.1864 34.6189 41.5718 35.0274C41.9572 35.4358 42.6018 35.4548 43.0102 35.0694C44.2614 33.8895 44.7351 32.6871 44.8226 31.6022C45.0255 29.0903 43.0184 27.1273 43.0184 27.1273C43.0157 27.1246 43.013 27.1219 43.0102 27.1192C42.2259 26.3796 41.8853 25.6495 41.8303 24.9696C41.7007 23.3642 43.0184 22.1239 43.0184 22.1239C43.4228 21.7337 43.435 21.0891 43.0449 20.6847C42.6554 20.2803 42.0101 20.2681 41.6057 20.6576Z" clip-rule="evenodd"/><path fill="url(#paint17_linear_1137_5005)" fill-rule="evenodd" d="M47.7756 20.6576C47.7756 20.6576 45.7686 22.6212 45.9714 25.1331C46.059 26.2167 46.5319 27.4177 47.7804 28.597C47.8747 28.6886 49.0886 29.895 48.9637 31.4386C48.9088 32.1185 48.5681 32.8486 47.7838 33.5889C47.3753 33.9743 47.3563 34.6189 47.7417 35.0274C48.1271 35.4358 48.7717 35.4548 49.1802 35.0694C50.4314 33.8895 50.905 32.6871 50.9925 31.6022C51.1954 29.0903 49.1883 27.1273 49.1883 27.1273C49.1856 27.1246 49.1829 27.1219 49.1802 27.1192C48.3958 26.3796 48.0552 25.6495 48.0002 24.9696C47.8706 23.3642 49.1883 22.1239 49.1883 22.1239C49.5927 21.7337 49.6049 21.0891 49.2148 20.6847C48.8253 20.2803 48.18 20.2681 47.7756 20.6576Z" clip-rule="evenodd"/><path fill="url(#paint18_linear_1137_5005)" fill-rule="evenodd" d="M54.1047 20.6576C54.1047 20.6576 52.0977 22.6212 52.3005 25.1331C52.3881 26.2167 52.861 27.4177 54.1095 28.597C54.2045 28.6886 55.4177 29.895 55.2928 31.4386C55.2379 32.1185 54.8972 32.8486 54.1129 33.5889C53.7044 33.9743 53.6854 34.6189 54.0708 35.0274C54.4562 35.4358 55.1008 35.4548 55.51 35.0694C56.7611 33.8895 57.2341 32.6871 57.3216 31.6022C57.5245 29.0903 55.5174 27.1273 55.5174 27.1273C55.5147 27.1246 55.512 27.1219 55.51 27.1192C54.7256 26.3796 54.385 25.6495 54.33 24.9696C54.2004 23.3642 55.5174 22.1239 55.5174 22.1239C55.9218 21.7337 55.934 21.0891 55.5439 20.6847C55.1544 20.2803 54.5098 20.2681 54.1047 20.6576Z" clip-rule="evenodd"/><path fill="url(#paint19_linear_1137_5005)" fill-rule="evenodd" d="M57.0627 51.9771C57.6333 51.9771 58.6091 52.1576 59.6913 52.0924C60.969 52.0151 62.3667 51.6276 63.5473 50.447C64.5265 49.4679 65.0767 48.1393 65.0767 46.7545V43.3259C65.0767 42.7152 64.8338 42.1297 64.4023 41.6981C63.9707 41.2666 63.3852 41.0237 62.7745 41.0237H59.6126C59.0508 41.0237 58.5948 41.4796 58.5948 42.0415C58.5948 42.6033 59.0508 43.0592 59.6126 43.0592H62.7745C62.8451 43.0592 62.9129 43.0877 62.9631 43.1373C63.0133 43.1875 63.0412 43.2553 63.0412 43.3259V46.7545C63.0412 47.5992 62.7053 48.4101 62.1075 49.0079C61.1651 49.951 59.9966 50.0874 59.0284 50.0711C58.2182 50.0569 57.5126 49.9415 57.0627 49.9415C56.5009 49.9415 56.0449 50.3975 56.0449 50.9593C56.0449 51.5204 56.5009 51.9771 57.0627 51.9771Z" clip-rule="evenodd"/><path fill="url(#paint20_linear_1137_5005)" fill-rule="evenodd" d="M57.8991 51.1558L60.6749 41.2554C60.8778 40.5308 60.7299 39.7525 60.2753 39.1534C59.8207 38.5536 59.1116 38.2014 58.3591 38.2014C54.0166 38.2014 43.129 38.2014 38.7865 38.2014C38.034 38.2014 37.325 38.5536 36.8703 39.1534C36.4157 39.7525 36.2678 40.5308 36.4714 41.2554L39.2465 51.1558C40.0736 54.106 42.7633 56.1449 45.8268 56.1449H51.3188C54.3823 56.1449 57.072 54.106 57.8991 51.1558ZM58.7147 40.7058L55.9389 50.6068C55.358 52.6777 53.4697 54.1094 51.3188 54.1094H45.8268C43.6759 54.1094 41.7876 52.6777 41.2068 50.6068L38.4309 40.7058C38.3997 40.5946 38.4228 40.4751 38.4927 40.3829C38.5626 40.2906 38.6711 40.237 38.7865 40.237H58.3591C58.4745 40.237 58.5837 40.2906 58.6536 40.3829C58.7235 40.4751 58.7459 40.5946 58.7147 40.7058Z" clip-rule="evenodd"/><path fill="url(#paint21_linear_1137_5005)" fill-rule="evenodd" d="M54.4891 45.0123C54.4891 44.5583 54.3086 44.1234 53.9877 43.8025C53.6668 43.4815 53.2318 43.301 52.7779 43.301C52.058 43.301 50.9377 43.301 50.2178 43.301C49.7639 43.301 49.329 43.4815 49.008 43.8025C48.6871 44.1234 48.5066 44.5583 48.5066 45.0123V48.1192C48.5066 48.5731 48.6871 49.0088 49.008 49.3297C49.329 49.6506 49.7639 49.8304 50.2178 49.8304H52.7779C53.2318 49.8304 53.6668 49.6506 53.9877 49.3297C54.3086 49.0088 54.4891 48.5731 54.4891 48.1192V45.0123ZM50.5422 45.3366V47.7949H52.4536V45.3366H50.5422Z" clip-rule="evenodd"/><path fill="url(#paint22_linear_1137_5005)" fill-rule="evenodd" d="M52.5151 44.3183V39.2192C52.5151 38.6574 52.0591 38.2014 51.4973 38.2014C50.9361 38.2014 50.4795 38.6574 50.4795 39.2192V44.3183C50.4795 44.8801 50.9361 45.3361 51.4973 45.3361C52.0591 45.3361 52.5151 44.8801 52.5151 44.3183Z" clip-rule="evenodd"/></g><defs><linearGradient id="paint0_linear_1137_5005" x1="28.445" x2="21.422" y1="26.044" y2="39.833" gradientUnits="userSpaceOnUse"><stop offset=".03" stop-color="#B0905A"/><stop offset="1" stop-color="#8E5B00"/></linearGradient><linearGradient id="paint1_linear_1137_5005" x1="27.373" x2="13.501" y1="5.53" y2="26.809" gradientUnits="userSpaceOnUse"><stop offset=".03" stop-color="#B0905A"/><stop offset="1" stop-color="#8E5B00"/></linearGradient><linearGradient id="paint2_linear_1137_5005" x1="11.198" x2="-8.806" y1="7.384" y2="35.927" gradientUnits="userSpaceOnUse"><stop offset=".03" stop-color="#B0905A"/><stop offset="1" stop-color="#8E5B00"/></linearGradient><linearGradient id="paint3_linear_1137_5005" x1="7.146" x2=".856" y1="3.147" y2="6.752" gradientUnits="userSpaceOnUse"><stop offset=".03" stop-color="#B0905A"/><stop offset="1" stop-color="#8E5B00"/></linearGradient><linearGradient id="paint4_linear_1137_5005" x1="11.158" x2="4.868" y1="3.147" y2="6.752" gradientUnits="userSpaceOnUse"><stop offset=".03" stop-color="#B0905A"/><stop offset="1" stop-color="#8E5B00"/></linearGradient><linearGradient id="paint5_linear_1137_5005" x1="13.998" x2="5.01" y1="38.06" y2="62.275" gradientUnits="userSpaceOnUse"><stop offset=".03" stop-color="#B0905A"/><stop offset="1" stop-color="#8E5B00"/></linearGradient><linearGradient id="paint6_linear_1137_5005" x1="8.28" x2="6.293" y1="42.509" y2="46.066" gradientUnits="userSpaceOnUse"><stop offset=".03" stop-color="#B0905A"/><stop offset="1" stop-color="#8E5B00"/></linearGradient><linearGradient id="paint7_linear_1137_5005" x1="10.848" x2="8.862" y1="48.794" y2="52.351" gradientUnits="userSpaceOnUse"><stop offset=".03" stop-color="#B0905A"/><stop offset="1" stop-color="#8E5B00"/></linearGradient><linearGradient id="paint8_linear_1137_5005" x1="25.474" x2="19.087" y1="40.783" y2="62.281" gradientUnits="userSpaceOnUse"><stop offset=".03" stop-color="#B0905A"/><stop offset="1" stop-color="#8E5B00"/></linearGradient><linearGradient id="paint9_linear_1137_5005" x1="41.796" x2="41.224" y1="55.964" y2="68.189" gradientUnits="userSpaceOnUse"><stop offset=".03" stop-color="#B0905A"/><stop offset="1" stop-color="#8E5B00"/></linearGradient><linearGradient id="paint10_linear_1137_5005" x1="20.625" x2="18.639" y1="42.509" y2="46.066" gradientUnits="userSpaceOnUse"><stop offset=".03" stop-color="#B0905A"/><stop offset="1" stop-color="#8E5B00"/></linearGradient><linearGradient id="paint11_linear_1137_5005" x1="19.107" x2="17.121" y1="48.794" y2="52.351" gradientUnits="userSpaceOnUse"><stop offset=".03" stop-color="#B0905A"/><stop offset="1" stop-color="#8E5B00"/></linearGradient><linearGradient id="paint12_linear_1137_5005" x1="25.711" x2="23.725" y1="45.283" y2="48.84" gradientUnits="userSpaceOnUse"><stop offset=".03" stop-color="#B0905A"/><stop offset="1" stop-color="#8E5B00"/></linearGradient><linearGradient id="paint13_linear_1137_5005" x1="35.046" x2="30.281" y1="45.329" y2="60.278" gradientUnits="userSpaceOnUse"><stop offset=".03" stop-color="#B0905A"/><stop offset="1" stop-color="#8E5B00"/></linearGradient><linearGradient id="paint14_linear_1137_5005" x1="32.931" x2="30.945" y1="47.925" y2="51.483" gradientUnits="userSpaceOnUse"><stop offset=".03" stop-color="#B0905A"/><stop offset="1" stop-color="#8E5B00"/></linearGradient><linearGradient id="paint15_linear_1137_5005" x1="36.696" x2="35.029" y1="50.456" y2="53.794" gradientUnits="userSpaceOnUse"><stop offset=".03" stop-color="#B0905A"/><stop offset="1" stop-color="#8E5B00"/></linearGradient><linearGradient id="paint16_linear_1137_5005" x1="43.046" x2="33.843" y1="23.178" y2="33.477" gradientUnits="userSpaceOnUse"><stop offset=".03" stop-color="#B0905A"/><stop offset="1" stop-color="#8E5B00"/></linearGradient><linearGradient id="paint17_linear_1137_5005" x1="49.216" x2="40.012" y1="23.178" y2="33.477" gradientUnits="userSpaceOnUse"><stop offset=".03" stop-color="#B0905A"/><stop offset="1" stop-color="#8E5B00"/></linearGradient><linearGradient id="paint18_linear_1137_5005" x1="55.545" x2="46.342" y1="23.178" y2="33.477" gradientUnits="userSpaceOnUse"><stop offset=".03" stop-color="#B0905A"/><stop offset="1" stop-color="#8E5B00"/></linearGradient><linearGradient id="paint19_linear_1137_5005" x1="61.874" x2="57.413" y1="43.099" y2="55.161" gradientUnits="userSpaceOnUse"><stop offset=".03" stop-color="#B0905A"/><stop offset="1" stop-color="#8E5B00"/></linearGradient><linearGradient id="paint20_linear_1137_5005" x1="52.117" x2="47.425" y1="41.562" y2="62.72" gradientUnits="userSpaceOnUse"><stop offset=".03" stop-color="#B0905A"/><stop offset="1" stop-color="#8E5B00"/></linearGradient><linearGradient id="paint21_linear_1137_5005" x1="52.367" x2="49.97" y1="44.524" y2="51.813" gradientUnits="userSpaceOnUse"><stop offset=".03" stop-color="#B0905A"/><stop offset="1" stop-color="#8E5B00"/></linearGradient><linearGradient id="paint22_linear_1137_5005" x1="51.793" x2="47.386" y1="39.538" y2="43.709" gradientUnits="userSpaceOnUse"><stop offset=".03" stop-color="#B0905A"/><stop offset="1" stop-color="#8E5B00"/></linearGradient><clipPath id="clip0_1137_5005"><rect width="65.138" height="63.781" fill="#fff" transform="translate(0.27832 0.586182)"/></clipPath></defs></svg>