<svg xmlns="http://www.w3.org/2000/svg" width="62" height="63" fill="none" viewBox="0 0 62 63"><path fill="url(#paint0_linear_1151_4620)" d="M57.7409 22.8159L54.3334 20.3395V8.85816H54.8099C55.0594 8.85306 55.297 8.74713 55.4717 8.5631C55.6463 8.37908 55.7442 8.13165 55.7442 7.87395C55.7442 7.61624 55.6463 7.36881 55.4716 7.1848C55.2969 7.00079 55.0593 6.89487 54.8098 6.88979H45.2805C45.031 6.89489 44.7934 7.00082 44.6187 7.18484C44.4441 7.36886 44.3462 7.6163 44.3462 7.874C44.3462 8.13171 44.4441 8.37914 44.6188 8.56315C44.7935 8.74716 45.0311 8.85308 45.2806 8.85816H45.757V14.1064L32.0116 4.1165C31.851 3.9997 31.6594 3.93701 31.463 3.93701C31.2666 3.93701 31.075 3.9997 30.9144 4.1165L5.18511 22.8159C5.06015 22.9068 4.95819 23.0273 4.88782 23.1674C4.81745 23.3075 4.78073 23.463 4.78076 23.6209V27.5576C4.78077 27.8186 4.88118 28.0689 5.05988 28.2535C5.23859 28.4381 5.48097 28.5417 5.7337 28.5418H8.59251V57.083H7.16306C6.91333 57.0877 6.67536 57.1934 6.50037 57.3775C6.32537 57.5616 6.22733 57.8092 6.22733 58.0672C6.22734 58.3251 6.3254 58.5728 6.50041 58.7568C6.67542 58.9409 6.91339 59.0466 7.16312 59.0513C19.2662 59.0751 55.7582 59.0518 55.7628 59.0514C56.0156 59.0513 56.2579 58.9476 56.4366 58.7631C56.6153 58.5785 56.7157 58.3282 56.7158 58.0672C56.6645 56.7453 55.1672 57.1381 54.3334 57.083V28.5418H57.1922C57.445 28.5417 57.6873 28.4381 57.866 28.2535C58.0447 28.0689 58.1451 27.8186 58.1452 27.5576V23.6209C58.1452 23.463 58.1085 23.3075 58.0381 23.1674C57.9678 23.0273 57.8658 22.9068 57.7409 22.8159ZM47.6629 8.85816H52.4276V18.9544L47.6629 15.4915V8.85816ZM30.51 56.9004C30.5134 56.9445 30.4999 56.9882 30.4726 57.0223C30.4452 57.0564 30.4061 57.0781 30.3635 57.083H14.4985C14.4567 57.0784 14.4179 57.0583 14.3894 57.0264C14.3609 56.9944 14.3447 56.9529 14.3436 56.9095V54.7965C14.343 54.1456 14.541 53.511 14.9095 52.9829C15.2781 52.4549 15.7984 52.0602 16.3965 51.855L20.6792 50.3807C22.9461 49.398 26.307 51.2309 28.465 51.855C29.0615 52.0591 29.5803 52.4524 29.9476 52.979C30.3148 53.5056 30.5116 54.1384 30.51 54.7874V56.9004ZM22.4311 40.3615C23.4212 40.3708 24.3678 40.7835 25.0648 41.5098C25.7618 42.2362 26.1528 43.2175 26.1528 44.2401C26.1528 45.2628 25.7617 46.2441 25.0647 46.9704C24.3677 47.6968 23.4212 48.1095 22.431 48.1187C21.4409 48.1095 20.4943 47.6968 19.7973 46.9704C19.1003 46.244 18.7093 45.2627 18.7093 44.2401C18.7093 43.2174 19.1004 42.2362 19.7974 41.5098C20.4944 40.7834 21.4409 40.3707 22.4311 40.3615ZM48.5907 56.9004C48.5906 56.9486 48.572 56.9949 48.539 57.0291C48.506 57.0633 48.4613 57.0827 48.4145 57.083H32.5921C32.5478 57.0822 32.5055 57.0637 32.4741 57.0313C32.4427 56.999 32.4247 56.9553 32.4238 56.9095V54.7965C32.4238 54.7775 32.4197 54.7594 32.4195 54.7405C32.4278 54.0979 32.6295 53.474 32.9967 52.9553C33.364 52.4366 33.8785 52.0488 34.4688 51.8459C36.625 51.2218 39.9937 49.3887 42.2552 50.3715L46.5373 51.8459C47.1355 52.0511 47.6559 52.4457 48.0245 52.9738C48.3931 53.5018 48.5912 54.1364 48.5907 54.7874V56.9004ZM40.5034 40.3524C41.4935 40.3616 42.4401 40.7743 43.1371 41.5007C43.8341 42.2271 44.2251 43.2084 44.2251 44.231C44.2251 45.2537 43.834 46.2349 43.137 46.9613C42.44 47.6877 41.4935 48.1003 40.5033 48.1096C39.5132 48.1003 38.5666 47.6876 37.8696 46.9612C37.1726 46.2349 36.7816 45.2536 36.7816 44.2309C36.7816 43.2083 37.1726 42.227 37.8697 41.5007C38.5667 40.7743 39.5132 40.3616 40.5034 40.3524ZM56.2393 26.5734H53.3805C53.1278 26.5734 52.8854 26.6771 52.7067 26.8617C52.528 27.0462 52.4276 27.2966 52.4276 27.5576V57.083H50.4788C50.4838 57.0218 50.4966 56.9629 50.4966 56.9004V54.7874C50.4975 53.7232 50.1737 52.6858 49.5712 51.8226C48.9687 50.9593 48.1182 50.314 47.1404 49.9784L43.9311 48.8735C44.8727 48.1327 45.5655 47.1056 45.9121 45.9367C46.2587 44.7679 46.2415 43.5162 45.863 42.358C45.4845 41.1997 44.7638 40.1933 43.8023 39.4804C42.8408 38.7675 41.687 38.384 40.5034 38.384C39.3198 38.384 38.166 38.7675 37.2045 39.4804C36.243 40.1933 35.5223 41.1997 35.1438 42.358C34.7653 43.5162 34.7481 44.7679 35.0947 45.9367C35.4413 47.1056 36.1341 48.1327 37.0757 48.8735C35.3882 49.5147 32.4659 50.0835 31.4633 51.7885C30.468 50.0952 27.5321 49.5191 25.8588 48.8826C26.8003 48.1418 27.4932 47.1147 27.8398 45.9459C28.1863 44.777 28.1692 43.5254 27.7907 42.3671C27.4122 41.2089 26.6915 40.2024 25.73 39.4895C24.7685 38.7766 23.6147 38.3932 22.4311 38.3932C21.2475 38.3932 20.0937 38.7766 19.1322 39.4895C18.1707 40.2024 17.4499 41.2089 17.0715 42.3671C16.693 43.5254 16.6758 44.777 17.0224 45.9459C17.369 47.1147 18.0618 48.1418 19.0034 48.8826L15.7935 49.9876C14.8158 50.3232 13.9653 50.9685 13.3629 51.8317C12.7605 52.695 12.4368 53.7324 12.4378 54.7965V56.9095C12.4378 56.9689 12.4502 57.0248 12.4548 57.083H10.4984V27.5576C10.4984 27.2966 10.398 27.0462 10.2193 26.8617C10.0406 26.6771 9.79817 26.5734 9.54544 26.5734H6.68663V24.1317L31.463 6.12474L56.2393 24.1317V26.5734Z"/><path fill="url(#paint1_linear_1151_4620)" d="M21.9336 23.6204C21.9364 26.2297 22.9413 28.7313 24.7278 30.5764C26.5143 32.4215 28.9365 33.4593 31.4629 33.4622C44.105 32.9218 44.1013 14.317 31.4629 13.7786C28.9364 13.7815 26.5142 14.8194 24.7278 16.6644C22.9413 18.5095 21.9364 21.0111 21.9336 23.6204ZM39.0864 23.6204C39.0841 25.7079 38.2802 27.7091 36.851 29.1852C35.4218 30.6612 33.4841 31.4915 31.4629 31.4939C21.3633 31.098 21.366 16.1412 31.463 15.747C33.4842 15.7494 35.4219 16.5797 36.8511 18.0557C38.2802 19.5318 39.0841 21.533 39.0864 23.6204Z"/><path fill="url(#paint2_linear_1151_4620)" d="M29.6776 26.6138C29.766 26.7052 29.8711 26.7777 29.9867 26.8272C30.1023 26.8767 30.2262 26.9022 30.3513 26.9022C30.4765 26.9022 30.6004 26.8767 30.716 26.8272C30.8316 26.7777 30.9366 26.7052 31.0251 26.6138L35.472 22.0207C35.6449 21.8349 35.7404 21.5865 35.7379 21.3288C35.7355 21.0711 35.6352 20.8247 35.4588 20.6425C35.2824 20.4603 35.0438 20.3568 34.7943 20.3543C34.5448 20.3518 34.3043 20.4504 34.1244 20.629L30.3513 24.5263L28.8014 22.9255C28.6216 22.7469 28.381 22.6482 28.1315 22.6507C27.8819 22.6532 27.6433 22.7567 27.4669 22.9389C27.2904 23.1212 27.1902 23.3676 27.1878 23.6254C27.1854 23.8831 27.2809 24.1315 27.4539 24.3172L29.6776 26.6138Z"/><defs><linearGradient id="paint0_linear_1151_4620" x1="39.22" x2="19.865" y1="14.262" y2="76.434" gradientUnits="userSpaceOnUse"><stop offset=".03" stop-color="#B0905A"/><stop offset="1" stop-color="#8E5B00"/></linearGradient><linearGradient id="paint1_linear_1151_4620" x1="34.202" x2="27.277" y1="17.465" y2="39.656" gradientUnits="userSpaceOnUse"><stop offset=".03" stop-color="#B0905A"/><stop offset="1" stop-color="#8E5B00"/></linearGradient><linearGradient id="paint2_linear_1151_4620" x1="32.706" x2="30.931" y1="21.581" y2="29.272" gradientUnits="userSpaceOnUse"><stop offset=".03" stop-color="#B0905A"/><stop offset="1" stop-color="#8E5B00"/></linearGradient></defs></svg>