<svg xmlns="http://www.w3.org/2000/svg" width="59" height="59" fill="none" viewBox="0 0 59 59"><g clip-path="url(#clip0_1151_4678)"><path fill="url(#paint0_linear_1151_4678)" d="M57.8141 12.4375H40.4141C39.8803 12.4375 39.4474 12.8703 39.4474 13.4042V35.6375H18.1808V32.7375C18.1808 32.2037 17.7479 31.7708 17.2141 31.7708H14.3141V33.7042H16.2474V35.6375H12.3808V31.7708H10.4474V35.6375H6.58076V33.7042H8.51409V31.7708H5.61409C5.08026 31.7708 4.64743 32.2037 4.64743 32.7375V35.6375H1.74743C1.21359 35.6375 0.780762 36.0703 0.780762 36.6042V57.8708C0.780762 58.4047 1.21359 58.8375 1.74743 58.8375H57.8141C58.3479 58.8375 58.7808 58.4047 58.7808 57.8708V13.4042C58.7808 12.8703 58.3479 12.4375 57.8141 12.4375ZM41.3808 14.3708H56.8474V25.9708H41.3808V14.3708ZM39.4474 41.4375H22.0474V37.5708H39.4474V41.4375ZM2.71409 37.5708H20.1141V41.4375H2.71409V37.5708ZM2.71409 43.3708H20.1141V56.9042H2.71409V43.3708ZM22.0474 43.3708H29.7808V56.9042H22.0474V43.3708ZM31.7141 43.3708H39.4474V56.9042H31.7141V43.3708ZM41.3808 56.9042V27.9042H56.8474V56.9042H41.3808Z"/><path fill="url(#paint1_linear_1151_4678)" d="M43.3142 18.2373H45.2475V22.104H43.3142V18.2373Z"/><path fill="url(#paint2_linear_1151_4678)" d="M43.3142 31.7708H45.2475V35.6374H43.3142V31.7708Z"/><path fill="url(#paint3_linear_1151_4678)" d="M6.58079 39.504C6.58079 40.0379 6.14797 40.4707 5.61413 40.4707C5.08029 40.4707 4.64746 40.0379 4.64746 39.504C4.64746 38.9702 5.08029 38.5374 5.61413 38.5374C6.14797 38.5374 6.58079 38.9702 6.58079 39.504Z"/><path fill="url(#paint4_linear_1151_4678)" d="M10.4475 39.504C10.4475 40.0379 10.0147 40.4707 9.48083 40.4707C8.94699 40.4707 8.51416 40.0379 8.51416 39.504C8.51416 38.9702 8.94699 38.5374 9.48083 38.5374C10.0147 38.5374 10.4475 38.9702 10.4475 39.504Z"/><path fill="url(#paint5_linear_1151_4678)" d="M14.3142 39.504C14.3142 40.0379 13.8814 40.4707 13.3475 40.4707C12.8137 40.4707 12.3809 40.0379 12.3809 39.504C12.3809 38.9702 12.8137 38.5374 13.3475 38.5374C13.8814 38.5374 14.3142 38.9702 14.3142 39.504Z"/><path fill="url(#paint6_linear_1151_4678)" d="M18.1806 39.504C18.1806 40.0379 17.7478 40.4707 17.214 40.4707C16.6801 40.4707 16.2473 40.0379 16.2473 39.504C16.2473 38.9702 16.6801 38.5374 17.214 38.5374C17.7478 38.5374 18.1806 38.9702 18.1806 39.504Z"/><path fill="url(#paint7_linear_1151_4678)" d="M1.74743 19.2041H21.0808C21.6146 19.2041 22.0474 18.7712 22.0474 18.2374V15.3374C22.0474 15.0811 21.9455 14.8352 21.7642 14.6539L17.8976 10.7873C17.7163 10.606 17.4704 10.5041 17.2141 10.5041H16.2474V1.80407C16.2474 1.27023 15.8146 0.837402 15.2808 0.837402H7.54743C7.01359 0.837402 6.58076 1.27023 6.58076 1.80407V10.5041H5.61409C5.3578 10.5041 5.11188 10.606 4.93063 10.7873L1.06396 14.6539C0.882715 14.8352 0.780762 15.0811 0.780762 15.3374V18.2374C0.780762 18.7712 1.21359 19.2041 1.74743 19.2041ZM8.51409 2.77074H14.3141V10.5041H8.51409V2.77074ZM2.71409 15.7377L6.01436 12.4374H16.8138L20.1141 15.7377V17.2707H2.71409V15.7377Z"/><path fill="url(#paint8_linear_1151_4678)" d="M17.2141 45.304H5.61413C5.08029 45.304 4.64746 45.7368 4.64746 46.2706V54.004C4.64746 54.5378 5.08029 54.9706 5.61413 54.9706H17.2141C17.748 54.9706 18.1808 54.5378 18.1808 54.004V46.2706C18.1808 45.7368 17.748 45.304 17.2141 45.304ZM16.2475 53.0373H6.58079V47.2373H16.2475V53.0373Z"/><path fill="url(#paint9_linear_1151_4678)" d="M28.8142 38.5374H32.6809V40.4707H28.8142V38.5374Z"/><path fill="url(#paint10_linear_1151_4678)" d="M25.9141 48.2041H27.8474V52.0708H25.9141V48.2041Z"/><path fill="url(#paint11_linear_1151_4678)" d="M33.6475 48.2041H35.5808V52.0708H33.6475V48.2041Z"/><path fill="url(#paint12_linear_1151_4678)" d="M23.9808 25.0041H29.7808C30.3147 25.0041 30.7475 24.5712 30.7475 24.0374V23.0707C30.7409 21.313 29.5495 19.7809 27.8475 19.3414V0.837402H25.9142V19.3414C24.2121 19.7809 23.0208 21.313 23.0142 23.0707V24.0374C23.0142 24.5712 23.447 25.0041 23.9808 25.0041ZM26.8808 21.1374C27.9485 21.1374 28.8142 22.0031 28.8142 23.0707H24.9475C24.9475 22.0031 25.8132 21.1374 26.8808 21.1374Z"/><path fill="url(#paint13_linear_1151_4678)" d="M30.7474 17.2707H36.5474C37.0813 17.2707 37.5141 16.8379 37.5141 16.3041V15.3374C37.5075 13.5797 36.3161 12.0475 34.6141 11.6081V0.837402H32.6808V11.6081C30.9787 12.0475 29.7874 13.5797 29.7808 15.3374V16.3041C29.7808 16.8379 30.2136 17.2707 30.7474 17.2707ZM33.6474 13.4041C34.7151 13.4041 35.5808 14.2697 35.5808 15.3374H31.7141C31.7141 14.2697 32.5798 13.4041 33.6474 13.4041Z"/></g><defs><linearGradient id="paint0_linear_1151_4678" x1="38.212" x2="25.133" y1="21.128" y2="75.378" gradientUnits="userSpaceOnUse"><stop offset=".03" stop-color="#B0905A"/><stop offset="1" stop-color="#8E5B00"/></linearGradient><linearGradient id="paint1_linear_1151_4678" x1="44.562" x2="42.447" y1="18.962" y2="22.47" gradientUnits="userSpaceOnUse"><stop offset=".03" stop-color="#B0905A"/><stop offset="1" stop-color="#8E5B00"/></linearGradient><linearGradient id="paint2_linear_1151_4678" x1="44.562" x2="42.447" y1="32.495" y2="36.004" gradientUnits="userSpaceOnUse"><stop offset=".03" stop-color="#B0905A"/><stop offset="1" stop-color="#8E5B00"/></linearGradient><linearGradient id="paint3_linear_1151_4678" x1="5.895" x2="5.234" y1="38.9" y2="41.092" gradientUnits="userSpaceOnUse"><stop offset=".03" stop-color="#B0905A"/><stop offset="1" stop-color="#8E5B00"/></linearGradient><linearGradient id="paint4_linear_1151_4678" x1="9.762" x2="9.101" y1="38.9" y2="41.092" gradientUnits="userSpaceOnUse"><stop offset=".03" stop-color="#B0905A"/><stop offset="1" stop-color="#8E5B00"/></linearGradient><linearGradient id="paint5_linear_1151_4678" x1="13.629" x2="12.968" y1="38.9" y2="41.092" gradientUnits="userSpaceOnUse"><stop offset=".03" stop-color="#B0905A"/><stop offset="1" stop-color="#8E5B00"/></linearGradient><linearGradient id="paint6_linear_1151_4678" x1="17.495" x2="16.834" y1="38.9" y2="41.092" gradientUnits="userSpaceOnUse"><stop offset=".03" stop-color="#B0905A"/><stop offset="1" stop-color="#8E5B00"/></linearGradient><linearGradient id="paint7_linear_1151_4678" x1="14.505" x2="8.967" y1="4.277" y2="25.558" gradientUnits="userSpaceOnUse"><stop offset=".03" stop-color="#B0905A"/><stop offset="1" stop-color="#8E5B00"/></linearGradient><linearGradient id="paint8_linear_1151_4678" x1="13.381" x2="10.921" y1="47.114" y2="58.544" gradientUnits="userSpaceOnUse"><stop offset=".03" stop-color="#B0905A"/><stop offset="1" stop-color="#8E5B00"/></linearGradient><linearGradient id="paint9_linear_1151_4678" x1="31.31" x2="30.957" y1="38.9" y2="41.238" gradientUnits="userSpaceOnUse"><stop offset=".03" stop-color="#B0905A"/><stop offset="1" stop-color="#8E5B00"/></linearGradient><linearGradient id="paint10_linear_1151_4678" x1="27.162" x2="25.047" y1="48.928" y2="52.437" gradientUnits="userSpaceOnUse"><stop offset=".03" stop-color="#B0905A"/><stop offset="1" stop-color="#8E5B00"/></linearGradient><linearGradient id="paint11_linear_1151_4678" x1="34.895" x2="32.78" y1="48.928" y2="52.437" gradientUnits="userSpaceOnUse"><stop offset=".03" stop-color="#B0905A"/><stop offset="1" stop-color="#8E5B00"/></linearGradient><linearGradient id="paint12_linear_1151_4678" x1="28.005" x2="13.083" y1="5.364" y2="21.208" gradientUnits="userSpaceOnUse"><stop offset=".03" stop-color="#B0905A"/><stop offset="1" stop-color="#8E5B00"/></linearGradient><linearGradient id="paint13_linear_1151_4678" x1="34.772" x2="25.538" y1="3.915" y2="18.333" gradientUnits="userSpaceOnUse"><stop offset=".03" stop-color="#B0905A"/><stop offset="1" stop-color="#8E5B00"/></linearGradient><clipPath id="clip0_1151_4678"><rect width="58" height="58" fill="#fff" transform="translate(0.780762 0.837402)"/></clipPath></defs></svg>