<svg width="66" height="66" viewBox="0 0 66 66" fill="none" xmlns="http://www.w3.org/2000/svg">
<path d="M61.3347 63.4724C61.7061 63.4724 62.0775 63.1938 62.0775 62.7295C62.0775 62.2652 61.799 61.9867 61.3347 61.9867H55.299V51.7724C55.299 50.1938 54.2775 48.801 52.699 48.2438C47.4061 46.5724 62.3561 51.401 39.6061 43.9724V40.8152C42.2061 38.8652 43.9704 35.8938 44.249 32.4581C46.1061 32.1795 47.5918 30.5081 47.5918 28.5581C47.5918 27.2581 46.9418 26.1438 46.0133 25.401C46.0133 25.2152 46.1061 25.0295 46.0133 24.9367L44.7133 22.4295C48.149 21.5938 50.5633 18.6224 50.5633 15.001C50.5633 9.80096 45.3633 6.17953 40.5347 7.7581C39.2347 4.78667 36.2633 2.83667 32.9204 2.83667C29.5775 2.83667 26.699 4.78667 25.3061 7.7581C24.5633 7.47953 23.7275 7.38667 22.8918 7.38667C18.7133 7.38667 15.2775 10.8224 15.2775 15.001C15.2775 18.5295 17.6918 21.5938 21.1275 22.4295L19.8275 24.9367C19.7347 25.1224 19.7347 25.3081 19.8275 25.401C18.899 26.1438 18.3418 27.2581 18.3418 28.5581C18.3418 30.5081 19.8275 32.1795 21.6847 32.4581C21.8704 35.6152 23.449 38.6795 26.3275 40.8152V43.9724C3.57754 51.3081 18.4347 46.4795 13.1418 48.2438C11.749 48.801 10.7275 50.1938 10.7275 51.7724V62.0795H4.69183C4.3204 62.0795 3.94897 62.3581 3.94897 62.8224C3.94897 63.2867 4.22755 63.5652 4.69183 63.5652H61.3347V63.4724ZM53.9061 51.7724V62.0795H31.899V51.401C33.7561 51.5867 35.0561 51.3081 34.9633 51.3081C39.8847 50.5652 42.2061 47.501 43.1347 46.7581C43.1347 46.7581 43.1347 46.6652 43.2275 46.6652L52.4204 49.6367C53.2561 49.9152 53.9061 50.751 53.9061 51.7724ZM41.649 46.201C40.999 46.6652 39.2347 48.9867 35.5204 49.8224V47.4081C35.6133 47.4081 37.3775 46.9438 39.1418 45.3652L41.649 46.201ZM31.899 50.0081V47.6867C32.7347 47.7795 33.2918 47.7795 34.1275 47.6867V50.0081C33.3847 50.101 32.8275 50.101 31.899 50.0081ZM26.8847 45.3652C28.2775 46.6652 29.3918 46.9438 30.5061 47.4081V49.8224C26.7918 48.9867 24.5633 46.3867 24.3775 46.201L26.8847 45.3652ZM22.4275 24.5652H21.7775L22.799 22.6152H43.4133L44.4347 24.5652H43.7847H22.4275ZM44.3418 31.1581V26.1438C45.4561 26.4224 46.2918 27.4438 46.2918 28.651C46.199 29.7652 45.4561 30.7867 44.3418 31.1581ZM16.7633 15.0938C16.7633 11.6581 19.549 8.87238 22.9847 8.87238C23.9133 8.87238 24.749 9.0581 25.4918 9.42953C25.6775 9.52238 25.8633 9.52238 26.049 9.42953C26.2347 9.33667 26.3275 9.24381 26.4204 9.0581C27.349 6.27238 29.949 4.41524 32.9204 4.41524C35.8918 4.41524 38.4918 6.27238 39.4204 9.0581C39.5133 9.42953 39.9775 9.61524 40.349 9.42953C44.3418 7.57238 49.0775 10.5438 49.0775 15.0938C49.0775 18.251 46.7561 20.851 43.6918 21.2224H22.2418C19.0847 20.851 16.7633 18.1581 16.7633 15.0938ZM21.6847 31.1581C20.5704 30.8795 19.7347 29.8581 19.7347 28.651C19.7347 27.4438 20.5704 26.4224 21.6847 26.1438V31.1581ZM23.0775 31.7152V25.9581H42.8561V31.7152C42.8561 36.3581 39.699 40.2581 35.3347 41.2795C28.4633 42.8581 23.0775 37.6581 23.0775 31.7152ZM35.3347 42.7652C36.3561 42.5795 37.2847 42.301 38.2133 41.8367V44.251C35.2418 47.0367 30.6918 46.9438 27.7204 44.251V41.8367C29.8561 42.8581 32.7347 43.3224 35.3347 42.7652ZM12.1204 51.7724C12.1204 50.751 12.7704 49.9152 13.699 49.6367L22.8918 46.6652C23.449 47.1295 25.6775 50.2867 30.5061 51.2152V62.0795H12.1204V51.7724Z" fill="url(#paint0_linear_1151_4693)"/>
<path d="M58.3633 55.2081C58.7347 55.2081 59.1061 54.9295 59.1061 54.4653V51.7724C59.1061 48.6153 57.0633 45.7367 53.999 44.7153L51.5847 43.9724C51.2133 43.8795 50.8419 44.0653 50.749 44.4367C50.6561 44.8081 50.8419 45.1795 51.2133 45.2724L53.6276 46.0153C56.1347 46.851 57.8062 49.1724 57.8062 51.6795V54.3724C57.6204 54.8367 57.9919 55.2081 58.3633 55.2081Z" fill="url(#paint1_linear_1151_4693)"/>
<path d="M46.8489 42.4866C46.4775 42.3937 46.106 42.5794 46.0132 42.9508C45.9203 43.3223 46.106 43.6937 46.4775 43.7866L47.5917 44.158H47.7775C48.056 44.158 48.3346 43.9723 48.4274 43.6937C48.5203 43.3223 48.3346 42.9508 47.9632 42.858L46.8489 42.4866Z" fill="url(#paint2_linear_1151_4693)"/>
<path d="M15.0917 51.5867C14.7203 51.5867 14.3489 51.8652 14.3489 52.3295V55.3938C14.3489 55.7652 14.6274 56.1367 15.0917 56.1367C15.556 56.1367 15.8346 55.8581 15.8346 55.3938V52.3295C15.8346 51.9581 15.4632 51.5867 15.0917 51.5867Z" fill="url(#paint3_linear_1151_4693)"/>
<path d="M15.0917 57.7153C14.7203 57.7153 14.3489 57.9939 14.3489 58.4582V59.1082C14.3489 59.4796 14.6274 59.851 15.0917 59.851C15.556 59.851 15.8346 59.5725 15.8346 59.1082V58.4582C15.8346 57.9939 15.4632 57.7153 15.0917 57.7153Z" fill="url(#paint4_linear_1151_4693)"/>
<path d="M21.4062 40.1651C21.6848 39.9794 21.7776 39.5151 21.5919 39.2366C20.9419 38.2151 20.3848 37.008 20.0134 35.8937C19.9205 35.5223 19.5491 35.3366 19.1776 35.4294C18.8062 35.5223 18.6205 35.8937 18.7134 36.2651C19.0848 37.5651 19.7348 38.8651 20.4776 39.9794C20.6634 40.258 21.0348 40.3509 21.4062 40.1651Z" fill="url(#paint5_linear_1151_4693)"/>
<path d="M23.3561 42.301C23.6347 42.0224 23.6347 41.5581 23.3561 41.2796C23.2632 41.1867 23.1704 41.0939 23.0775 40.9081C22.799 40.6296 22.3347 40.6296 22.0561 40.9081C21.7775 41.1867 21.7775 41.651 22.0561 41.9296C22.149 42.0224 22.3347 42.2081 22.4275 42.301C22.7061 42.5796 23.0775 42.5796 23.3561 42.301Z" fill="url(#paint6_linear_1151_4693)"/>
<path d="M26.1418 29.7653C25.8632 30.0438 25.8632 30.5081 26.1418 30.7867C26.4204 31.0653 26.8846 31.0653 27.1632 30.7867C27.6275 30.3224 28.3704 30.3224 28.8346 30.7867C29.1132 31.0653 29.5775 31.0653 29.8561 30.7867C30.1346 30.5081 30.1346 30.0438 29.8561 29.7653C28.7418 28.8367 27.1632 28.8367 26.1418 29.7653Z" fill="url(#paint7_linear_1151_4693)"/>
<path d="M37.1919 30.7868C37.6562 30.3225 38.3991 30.3225 38.8634 30.7868C39.1419 31.0653 39.6062 31.0653 39.8848 30.7868C40.1634 30.5082 40.1634 30.0439 39.8848 29.7653C38.8634 28.7439 37.2848 28.7439 36.2634 29.7653C35.9848 30.0439 35.9848 30.5082 36.2634 30.7868C36.5419 31.0653 36.9134 31.0653 37.1919 30.7868Z" fill="url(#paint8_linear_1151_4693)"/>
<path d="M35.3346 37.6581C35.6132 37.3795 35.6132 36.9152 35.3346 36.6367C35.056 36.3581 34.5918 36.3581 34.3132 36.6367C33.5703 37.3795 32.3632 37.3795 31.5275 36.6367C31.2489 36.3581 30.7846 36.3581 30.506 36.6367C30.2275 36.9152 30.2275 37.3795 30.506 37.6581C31.9918 38.9581 34.0346 38.9581 35.3346 37.6581Z" fill="url(#paint9_linear_1151_4693)"/>
<path d="M33.0134 34.7795C33.3848 34.7795 33.7562 34.5009 33.7562 34.0366V32.3652C33.7562 31.9937 33.4776 31.6223 33.0134 31.6223C32.5491 31.6223 32.2705 31.9009 32.2705 32.3652V34.1295C32.2705 34.5009 32.6419 34.7795 33.0134 34.7795Z" fill="url(#paint10_linear_1151_4693)"/>
<path d="M34.2203 52.9795H33.756C33.3846 52.9795 33.0132 53.2581 33.0132 53.7223C33.0132 54.1866 33.2918 54.4652 33.756 54.4652H34.2203C34.5918 54.4652 34.9632 54.1866 34.9632 53.7223C34.9632 53.2581 34.5918 52.9795 34.2203 52.9795Z" fill="url(#paint11_linear_1151_4693)"/>
<path d="M34.2203 55.9509H33.756C33.3846 55.9509 33.0132 56.2295 33.0132 56.6938C33.0132 57.1581 33.2918 57.4366 33.756 57.4366H34.2203C34.5918 57.4366 34.9632 57.1581 34.9632 56.6938C34.9632 56.2295 34.5918 55.9509 34.2203 55.9509Z" fill="url(#paint12_linear_1151_4693)"/>
<path d="M34.2203 59.0151H33.756C33.3846 59.0151 33.0132 59.2937 33.0132 59.758C33.0132 60.2223 33.2918 60.5009 33.756 60.5009H34.2203C34.5918 60.5009 34.9632 60.2223 34.9632 59.758C34.9632 59.2937 34.5918 59.0151 34.2203 59.0151Z" fill="url(#paint13_linear_1151_4693)"/>
<path d="M42.9489 12.5868H43.0418C44.5275 12.5868 45.7346 13.8868 45.5489 15.3725C45.5489 15.7439 45.7346 16.1154 46.1989 16.1154H46.2918C46.6632 16.1154 46.9418 15.8368 46.9418 15.4654C47.2203 13.1439 45.3632 11.1011 43.0418 11.1011H42.8561C42.4846 11.1011 42.2061 11.4725 42.2061 11.8439C42.2061 12.3082 42.5775 12.5868 42.9489 12.5868Z" fill="url(#paint14_linear_1151_4693)"/>
<path d="M31.1561 8.68657C31.7132 8.31514 32.3632 8.12943 33.0132 8.12943C34.4061 8.12943 35.6132 8.96514 36.0775 10.2651C36.1703 10.6366 36.6346 10.8223 37.006 10.7294C37.3775 10.6366 37.5632 10.1723 37.4703 9.80086C36.8203 7.94372 35.056 6.73657 33.106 6.73657C32.1775 6.73657 31.2489 7.01514 30.4132 7.57229C30.1346 7.758 30.0418 8.22229 30.2275 8.50086C30.4132 8.77943 30.8775 8.87229 31.1561 8.68657Z" fill="url(#paint15_linear_1151_4693)"/>
<path d="M22.9847 12.5868C23.3561 12.5868 23.7276 12.3082 23.7276 11.8439C23.7276 11.3796 23.449 11.1011 22.9847 11.1011C20.849 11.1011 19.0847 12.8654 19.0847 15.0011C19.0847 15.3725 19.3633 15.7439 19.8276 15.7439C20.2919 15.7439 20.5704 15.4654 20.5704 15.0011C20.4776 13.7011 21.5919 12.5868 22.9847 12.5868Z" fill="url(#paint16_linear_1151_4693)"/>
<defs>
<linearGradient id="paint0_linear_1151_4693" x1="41.4631" y1="14.2108" x2="19.942" y2="82.5646" gradientUnits="userSpaceOnUse">
<stop offset="0.0300935" stop-color="#B0905A"/>
<stop offset="1" stop-color="#8E5B00"/>
</linearGradient>
<linearGradient id="paint1_linear_1151_4693" x1="56.134" y1="46.0576" x2="51.2886" y2="58.0251" gradientUnits="userSpaceOnUse">
<stop offset="0.0300935" stop-color="#B0905A"/>
<stop offset="1" stop-color="#8E5B00"/>
</linearGradient>
<linearGradient id="paint2_linear_1151_4693" x1="47.5781" y1="42.7804" x2="47.1609" y2="44.7909" gradientUnits="userSpaceOnUse">
<stop offset="0.0300935" stop-color="#B0905A"/>
<stop offset="1" stop-color="#8E5B00"/>
</linearGradient>
<linearGradient id="paint3_linear_1151_4693" x1="15.3077" y1="52.4389" x2="12.5022" y2="55.4786" gradientUnits="userSpaceOnUse">
<stop offset="0.0300935" stop-color="#B0905A"/>
<stop offset="1" stop-color="#8E5B00"/>
</linearGradient>
<linearGradient id="paint4_linear_1151_4693" x1="15.3077" y1="58.1153" x2="14.3439" y2="60.34" gradientUnits="userSpaceOnUse">
<stop offset="0.0300935" stop-color="#B0905A"/>
<stop offset="1" stop-color="#8E5B00"/>
</linearGradient>
<linearGradient id="paint5_linear_1151_4693" x1="20.6251" y1="36.3153" x2="18.2572" y2="41.1673" gradientUnits="userSpaceOnUse">
<stop offset="0.0300935" stop-color="#B0905A"/>
<stop offset="1" stop-color="#8E5B00"/>
</linearGradient>
<linearGradient id="paint6_linear_1151_4693" x1="22.9558" y1="41.0384" x2="22.3094" y2="43.0731" gradientUnits="userSpaceOnUse">
<stop offset="0.0300935" stop-color="#B0905A"/>
<stop offset="1" stop-color="#8E5B00"/>
</linearGradient>
<linearGradient id="paint7_linear_1151_4693" x1="28.5996" y1="29.4297" x2="28.2711" y2="31.7673" gradientUnits="userSpaceOnUse">
<stop offset="0.0300935" stop-color="#B0905A"/>
<stop offset="1" stop-color="#8E5B00"/>
</linearGradient>
<linearGradient id="paint8_linear_1151_4693" x1="38.6613" y1="29.3732" x2="38.3013" y2="31.7894" gradientUnits="userSpaceOnUse">
<stop offset="0.0300935" stop-color="#B0905A"/>
<stop offset="1" stop-color="#8E5B00"/>
</linearGradient>
<linearGradient id="paint9_linear_1151_4693" x1="33.683" y1="36.8408" x2="33.3428" y2="39.526" gradientUnits="userSpaceOnUse">
<stop offset="0.0300935" stop-color="#B0905A"/>
<stop offset="1" stop-color="#8E5B00"/>
</linearGradient>
<linearGradient id="paint10_linear_1151_4693" x1="33.2293" y1="32.2136" x2="31.4555" y2="34.9835" gradientUnits="userSpaceOnUse">
<stop offset="0.0300935" stop-color="#B0905A"/>
<stop offset="1" stop-color="#8E5B00"/>
</linearGradient>
<linearGradient id="paint11_linear_1151_4693" x1="34.2716" y1="53.2578" x2="33.8707" y2="55.0037" gradientUnits="userSpaceOnUse">
<stop offset="0.0300935" stop-color="#B0905A"/>
<stop offset="1" stop-color="#8E5B00"/>
</linearGradient>
<linearGradient id="paint12_linear_1151_4693" x1="34.2716" y1="56.2292" x2="33.8707" y2="57.9752" gradientUnits="userSpaceOnUse">
<stop offset="0.0300935" stop-color="#B0905A"/>
<stop offset="1" stop-color="#8E5B00"/>
</linearGradient>
<linearGradient id="paint13_linear_1151_4693" x1="34.2716" y1="59.2934" x2="33.8707" y2="61.0394" gradientUnits="userSpaceOnUse">
<stop offset="0.0300935" stop-color="#B0905A"/>
<stop offset="1" stop-color="#8E5B00"/>
</linearGradient>
<linearGradient id="paint14_linear_1151_4693" x1="45.2802" y1="12.0402" x2="43.4922" y2="17.6764" gradientUnits="userSpaceOnUse">
<stop offset="0.0300935" stop-color="#B0905A"/>
<stop offset="1" stop-color="#8E5B00"/>
</linearGradient>
<linearGradient id="paint15_linear_1151_4693" x1="34.8828" y1="7.48885" x2="34.0874" y2="12.3271" gradientUnits="userSpaceOnUse">
<stop offset="0.0300935" stop-color="#B0905A"/>
<stop offset="1" stop-color="#8E5B00"/>
</linearGradient>
<linearGradient id="paint16_linear_1151_4693" x1="22.0811" y1="11.9707" x2="20.4942" y2="17.2363" gradientUnits="userSpaceOnUse">
<stop offset="0.0300935" stop-color="#B0905A"/>
<stop offset="1" stop-color="#8E5B00"/>
</linearGradient>
</defs>
</svg>
