<svg width="58" height="58" viewBox="0 0 58 58" fill="none" xmlns="http://www.w3.org/2000/svg">
<g clip-path="url(#clip0_1137_5030)">
<path d="M17.9998 18.0471C15.42 18.0471 13.3213 20.1458 13.3213 22.7257C13.3213 25.3055 15.42 27.4042 17.9998 27.4042C20.5797 27.4042 22.6784 25.3055 22.6784 22.7257C22.6784 20.1458 20.5797 18.0471 17.9998 18.0471ZM17.9998 25.7342C16.3409 25.7342 14.9911 24.3846 14.9911 22.7256C14.9911 21.0666 16.3409 19.7169 17.9998 19.7169C19.6588 19.7169 21.0085 21.0665 21.0085 22.7256C21.0085 24.3846 19.6588 25.7342 17.9998 25.7342Z" fill="url(#paint0_linear_1137_5030)"/>
<path d="M40.097 27.4042C42.6768 27.4042 44.7755 25.3055 44.7755 22.7257C44.7755 20.1458 42.6768 18.0471 40.097 18.0471C37.5172 18.0471 35.4185 20.1458 35.4185 22.7257C35.4185 25.3055 37.5172 27.4042 40.097 27.4042ZM40.097 19.7171C41.7559 19.7171 43.1057 21.0667 43.1057 22.7258C43.1057 24.3847 41.756 25.7345 40.097 25.7345C38.4379 25.7345 37.0883 24.3848 37.0883 22.7258C37.0883 21.0667 38.4381 19.7171 40.097 19.7171Z" fill="url(#paint1_linear_1137_5030)"/>
<path d="M29.0486 13.1978C26.4688 13.1978 24.3701 15.2965 24.3701 17.8763C24.3701 20.4561 26.4688 22.5548 29.0486 22.5548C31.6284 22.5548 33.7271 20.4561 33.7271 17.8763C33.727 15.2965 31.6283 13.1978 29.0486 13.1978ZM29.0486 20.885C27.3896 20.885 26.04 19.5352 26.04 17.8763C26.04 16.2174 27.3895 14.8676 29.0486 14.8676C30.7075 14.8676 32.0572 16.2174 32.0572 17.8763C32.0572 19.5352 30.7075 20.885 29.0486 20.885Z" fill="url(#paint2_linear_1137_5030)"/>
<path d="M55.5924 39.6861C56.8567 36.4356 57.521 32.946 57.521 29.3535C57.521 21.7481 54.5593 14.5982 49.1815 9.22034C43.8039 3.84264 36.6537 0.880859 29.0485 0.880859C21.4432 0.880859 14.2932 3.84253 8.91541 9.22034C3.53759 14.5982 0.575928 21.7481 0.575928 29.3535C0.575928 32.3228 1.03108 35.2488 1.92891 38.0506C2.06963 38.4898 2.54027 38.7311 2.97882 38.5909C3.41793 38.4501 3.65982 37.9802 3.5191 37.541C2.6742 34.9042 2.24579 32.1495 2.24579 29.3535C2.24579 22.1942 5.03375 15.4634 10.0961 10.4012C15.1585 5.33879 21.8892 2.55083 29.0485 2.55083C36.2078 2.55083 42.9385 5.33868 48.0009 10.4011C53.0633 15.4635 55.8513 22.1941 55.8513 29.3533C55.8513 32.4005 55.3444 35.3694 54.3736 38.1656C53.2474 36.9777 51.8741 36.0263 50.3371 35.3943C50.8832 33.4733 51.1771 31.4472 51.1771 29.3533C51.1771 17.1516 41.2502 7.2248 29.0484 7.2248C16.8466 7.2248 6.91998 17.1517 6.91998 29.3535C6.91998 41.5552 16.8468 51.4821 29.0485 51.4821C31.1656 51.4821 33.2139 51.1822 35.154 50.6243C35.7903 52.1584 36.7452 53.5283 37.9359 54.6508C35.1176 55.639 32.1232 56.1562 29.0484 56.1562C23.9156 56.1562 18.9282 54.7013 14.6253 51.9486C10.4345 49.2678 7.07575 45.4894 4.91185 41.0216C4.71085 40.6066 4.21158 40.4332 3.79642 40.6342C3.38149 40.8352 3.20801 41.3346 3.4089 41.7496C5.70739 46.495 9.27474 50.5082 13.7253 53.3553C18.2973 56.2801 23.5961 57.826 29.0483 57.826C32.6705 57.826 36.1881 57.1512 39.4614 55.8664C41.3113 57.1036 43.5334 57.826 45.921 57.826C52.3452 57.826 57.5716 52.5996 57.5716 46.1755C57.5718 43.775 56.8418 41.542 55.5924 39.6861ZM34.7374 42.9087C33.255 43.4671 31.3686 43.7746 29.0483 43.8386C24.8915 43.724 22.1232 42.8303 20.5855 41.1066C19.3545 39.7268 18.8685 37.7679 19.0996 35.1179C19.107 35.0313 19.1155 34.9455 19.1246 34.8602C19.3899 32.4105 20.5354 30.3586 22.4375 28.9262C24.7406 27.1916 27.9914 26.4817 31.133 27.0273C31.5876 27.1055 32.0195 26.8017 32.0984 26.3476C32.1772 25.8932 31.8729 25.461 31.4187 25.3821C27.8308 24.7594 24.0978 25.5852 21.4328 27.5922C19.1528 29.3093 17.7807 31.7605 17.4646 34.6802C17.454 34.7773 17.4445 34.8747 17.436 34.973C17.1626 38.1064 17.7853 40.4763 19.3395 42.2184C21.2031 44.3072 24.3715 45.3834 29.0258 45.5084C29.0333 45.5086 29.0411 45.5087 29.0485 45.5087C29.056 45.5087 29.0635 45.5086 29.0709 45.5084C31.1133 45.4536 32.8685 45.2148 34.3536 44.7883C34.2993 45.2433 34.2707 45.7061 34.2707 46.1755C34.2707 47.1628 34.395 48.1213 34.6273 49.0373C32.8531 49.5412 30.982 49.8122 29.0485 49.8122C17.7675 49.8122 8.58984 40.6345 8.58984 29.3535C8.58984 18.0725 17.7675 8.89477 29.0485 8.89477C40.3295 8.89477 49.5073 18.0725 49.5073 29.3535C49.5073 31.2654 49.2426 33.1165 48.7494 34.8731C47.8436 34.6463 46.8964 34.525 45.9212 34.525C44.0484 34.525 42.2777 34.9699 40.7082 35.7585C40.6984 35.5019 40.684 35.2414 40.6606 34.9732C40.6521 34.8749 40.6425 34.7774 40.6319 34.6804C40.2573 31.219 38.3681 28.3928 35.3122 26.7223C34.9073 26.5011 34.4003 26.6497 34.1791 27.0544C33.9579 27.4591 34.1066 27.9663 34.5112 28.1875C36.3238 29.1785 38.569 31.1404 38.9717 34.8603C38.981 34.9456 38.9895 35.0314 38.9969 35.118C39.0482 35.7059 39.0623 36.258 39.0422 36.7786C37.0019 38.2764 35.4652 40.4214 34.7374 42.9087ZM45.9212 56.1562C40.4179 56.1562 35.9405 51.6789 35.9405 46.1755C35.9405 40.6721 40.4179 36.1948 45.9212 36.1948C51.4246 36.1948 55.902 40.6721 55.902 46.1755C55.902 51.679 51.4246 56.1562 45.9212 56.1562Z" fill="url(#paint3_linear_1137_5030)"/>
<path d="M53.1171 42.7627C53.0775 41.9853 52.7372 41.2701 52.159 40.7488C51.5814 40.2283 50.8341 39.9652 50.0593 40.004C49.2828 40.0443 48.5685 40.3845 48.0433 40.9672L44.1194 45.3933L43.7448 44.9866C43.2294 44.4148 42.5221 44.0779 41.7531 44.0381C40.986 43.9964 40.2462 44.26 39.6743 44.7755C39.0905 45.3017 38.753 46.0238 38.7237 46.8091C38.6945 47.5945 38.9774 48.3398 39.5245 48.9118L41.8896 51.3526C42.498 51.989 43.3478 52.3517 44.2272 52.3517C44.242 52.3517 44.2566 52.3516 44.2715 52.3514C45.1665 52.339 46.0241 51.951 46.6277 51.2837L49.1252 48.4909C49.4325 48.1473 49.403 47.6194 49.0593 47.3119C48.7157 47.0046 48.1878 47.034 47.8804 47.3778L45.386 50.1672C45.0914 50.4929 44.6874 50.6755 44.2482 50.6816C43.811 50.6884 43.4 50.5163 43.0925 50.1947L40.7274 47.754C40.499 47.515 40.38 47.2015 40.3923 46.8712C40.4045 46.5409 40.5466 46.2372 40.7921 46.0158C41.0328 45.799 41.3456 45.6898 41.6666 45.7056C41.99 45.7223 42.2874 45.8641 42.5104 46.1112L42.972 46.6123C43.2649 46.9371 43.6836 47.1234 44.121 47.1234C44.5584 47.1234 44.9772 46.9372 45.2747 46.6071L49.2882 42.08C49.51 41.8337 49.8145 41.6887 50.1455 41.6715C50.4771 41.6537 50.7947 41.7671 51.0408 41.9889C51.2873 42.2111 51.4323 42.5161 51.4493 42.8474C51.4662 43.1789 51.353 43.497 51.1272 43.7467L50.457 44.4961C50.1497 44.8397 50.1791 45.3675 50.5228 45.6751C50.8664 45.9824 51.3943 45.953 51.7018 45.6092L52.3688 44.8633C52.8911 44.2861 53.1568 43.54 53.1171 42.7627Z" fill="url(#paint4_linear_1137_5030)"/>
</g>
<defs>
<linearGradient id="paint0_linear_1137_5030" x1="19.36" y1="19.7997" x2="16.1618" y2="30.4118" gradientUnits="userSpaceOnUse">
<stop offset="0.0300935" stop-color="#B0905A"/>
<stop offset="1" stop-color="#8E5B00"/>
</linearGradient>
<linearGradient id="paint1_linear_1137_5030" x1="41.4572" y1="19.7997" x2="38.259" y2="30.4118" gradientUnits="userSpaceOnUse">
<stop offset="0.0300935" stop-color="#B0905A"/>
<stop offset="1" stop-color="#8E5B00"/>
</linearGradient>
<linearGradient id="paint2_linear_1137_5030" x1="30.4088" y1="14.9503" x2="27.2106" y2="25.5625" gradientUnits="userSpaceOnUse">
<stop offset="0.0300935" stop-color="#B0905A"/>
<stop offset="1" stop-color="#8E5B00"/>
</linearGradient>
<linearGradient id="paint3_linear_1137_5030" x1="37.3589" y1="11.5464" x2="17.9098" y2="76.1394" gradientUnits="userSpaceOnUse">
<stop offset="0.0300935" stop-color="#B0905A"/>
<stop offset="1" stop-color="#8E5B00"/>
</linearGradient>
<linearGradient id="paint4_linear_1137_5030" x1="48.0145" y1="42.3136" x2="44.3118" y2="56.6369" gradientUnits="userSpaceOnUse">
<stop offset="0.0300935" stop-color="#B0905A"/>
<stop offset="1" stop-color="#8E5B00"/>
</linearGradient>
<clipPath id="clip0_1137_5030">
<rect width="56.9959" height="56.9959" fill="white" transform="translate(0.576172 0.855713)"/>
</clipPath>
</defs>
</svg>
