<svg xmlns="http://www.w3.org/2000/svg" width="71" height="71" fill="none" viewBox="0 0 71 71"><path fill="url(#paint0_linear_1137_5080)" d="M45.8952 12.4142L27.2963 15.9041L7.86255 12.2773V55.5653L27.2826 59.1784L45.8952 55.6885L65.3153 59.3016V16.0272L45.8952 12.4142ZM26.5846 50.4058L25.2982 50.1047C25.2434 50.0911 25.1887 50.0774 25.134 50.0637L24.6139 51.3638C24.9697 51.4596 25.3392 51.5417 25.7088 51.5965L26.5846 51.7333V57.6319L9.25849 54.4021V13.9607L26.5846 17.1905V50.4058ZM45.1973 54.4021L27.9806 57.6319V51.6239L28.8702 51.487C29.2397 51.4323 29.5955 51.3501 29.9513 51.2543L29.445 49.9405C29.3765 49.9542 29.3218 49.9679 29.267 49.9816L27.9806 50.269V17.1905L45.1973 13.9607V54.4021ZM63.9193 57.6319L46.5932 54.4021V22.4732L47.866 22.7606C48.6461 22.9385 49.3851 23.2123 50.0694 23.5955L50.8768 22.4459C49.823 21.8437 48.6734 21.4605 47.4691 21.2689L46.5795 21.132V13.9607L63.9057 17.1905V57.6319H63.9193Z"/><path fill="url(#paint1_linear_1137_5080)" d="M45.8952 12.4142L27.2963 15.9041L7.86255 12.2773V55.5653L27.2826 59.1784L45.8952 55.6885L65.3153 59.3016V16.0272L45.8952 12.4142ZM26.5846 50.4058L25.2982 50.1047C25.2434 50.0911 25.1887 50.0774 25.134 50.0637L24.6139 51.3638C24.9697 51.4596 25.3392 51.5417 25.7088 51.5965L26.5846 51.7333V57.6319L9.25849 54.4021V13.9607L26.5846 17.1905V50.4058ZM45.1973 54.4021L27.9806 57.6319V51.6239L28.8702 51.487C29.2397 51.4323 29.5955 51.3501 29.9513 51.2543L29.445 49.9405C29.3765 49.9542 29.3218 49.9679 29.267 49.9816L27.9806 50.269V17.1905L45.1973 13.9607V54.4021ZM63.9193 57.6319L46.5932 54.4021V22.4732L47.866 22.7606C48.6461 22.9385 49.3851 23.2123 50.0694 23.5955L50.8768 22.4459C49.823 21.8437 48.6734 21.4605 47.4691 21.2689L46.5795 21.132V13.9607L63.9057 17.1905V57.6319H63.9193Z"/><path fill="url(#paint2_linear_1137_5080)" d="M17.8658 24.9772C18.5687 24.9772 19.1386 24.4073 19.1386 23.7044C19.1386 23.0015 18.5687 22.4316 17.8658 22.4316C17.1629 22.4316 16.593 23.0015 16.593 23.7044C16.593 24.4073 17.1629 24.9772 17.8658 24.9772Z"/><path fill="url(#paint3_linear_1137_5080)" d="M17.8658 24.9772C18.5687 24.9772 19.1386 24.4073 19.1386 23.7044C19.1386 23.0015 18.5687 22.4316 17.8658 22.4316C17.1629 22.4316 16.593 23.0015 16.593 23.7044C16.593 24.4073 17.1629 24.9772 17.8658 24.9772Z"/><path fill="url(#paint4_linear_1137_5080)" d="M56.2953 46.4093L58.3619 48.4759L57.3628 49.4612L55.31 47.3947L53.2571 49.4612L52.2717 48.4759L54.3246 46.4093L52.2717 44.3565L53.2571 43.3711L55.31 45.424L57.3628 43.3711L58.3619 44.3565L56.2953 46.4093Z"/><path fill="url(#paint5_linear_1137_5080)" d="M56.2953 46.4093L58.3619 48.4759L57.3628 49.4612L55.31 47.3947L53.2571 49.4612L52.2717 48.4759L54.3246 46.4093L52.2717 44.3565L53.2571 43.3711L55.31 45.424L57.3628 43.3711L58.3619 44.3565L56.2953 46.4093Z"/><path fill="url(#paint6_linear_1137_5080)" d="M18.6872 29.9863H17.2913V31.3823H18.6872V29.9863Z"/><path fill="url(#paint7_linear_1137_5080)" d="M18.6872 29.9863H17.2913V31.3823H18.6872V29.9863Z"/><path fill="url(#paint8_linear_1137_5080)" d="M21.0141 47.6258L20.1108 48.707C19.1528 47.7216 18.4138 46.5583 17.9348 45.2855L19.2897 44.9297C19.6866 45.9151 20.2751 46.832 21.0141 47.6258Z"/><path fill="url(#paint9_linear_1137_5080)" d="M21.0141 47.6258L20.1108 48.707C19.1528 47.7216 18.4138 46.5583 17.9348 45.2855L19.2897 44.9297C19.6866 45.9151 20.2751 46.832 21.0141 47.6258Z"/><path fill="url(#paint10_linear_1137_5080)" d="M18.6872 36.4473H17.2913V40.1014H18.6872V36.4473Z"/><path fill="url(#paint11_linear_1137_5080)" d="M18.6872 36.4473H17.2913V40.1014H18.6872V36.4473Z"/><path fill="url(#paint12_linear_1137_5080)" d="M37.2858 32.793H35.8899V37.6377H37.2858V32.793Z"/><path fill="url(#paint13_linear_1137_5080)" d="M37.2858 32.793H35.8899V37.6377H37.2858V32.793Z"/><path fill="url(#paint14_linear_1137_5080)" d="M40.8716 24.1848C39.6946 25.0334 38.7639 26.1556 38.1344 27.4694L36.8069 27.0178C37.5459 25.3892 38.7229 23.9796 40.1873 22.9531L40.8716 24.1848Z"/><path fill="url(#paint15_linear_1137_5080)" d="M40.8716 24.1848C39.6946 25.0334 38.7639 26.1556 38.1344 27.4694L36.8069 27.0178C37.5459 25.3892 38.7229 23.9796 40.1873 22.9531L40.8716 24.1848Z"/><path fill="url(#paint16_linear_1137_5080)" d="M37.1627 43.3438C36.8753 45.123 36.0952 46.779 34.9182 48.1475L33.9602 47.1211C34.8771 46.0126 35.5067 44.685 35.7667 43.2617L37.1627 43.3438Z"/><path fill="url(#paint17_linear_1137_5080)" d="M37.1627 43.3438C36.8753 45.123 36.0952 46.779 34.9182 48.1475L33.9602 47.1211C34.8771 46.0126 35.5067 44.685 35.7667 43.2617L37.1627 43.3438Z"/><path fill="url(#paint18_linear_1137_5080)" d="M56.0084 31.2058V31.7395H54.6124V31.2058C54.6124 29.8919 54.3114 28.6055 53.7502 27.4285L54.9272 26.6621C55.6389 28.0717 56.0084 29.6182 56.0084 31.2058Z"/><path fill="url(#paint19_linear_1137_5080)" d="M56.0084 31.2058V31.7395H54.6124V31.2058C54.6124 29.8919 54.3114 28.6055 53.7502 27.4285L54.9272 26.6621C55.6389 28.0717 56.0084 29.6182 56.0084 31.2058Z"/><path fill="url(#paint20_linear_1137_5080)" d="M56.0085 37.4316H54.6125V38.8276H56.0085V37.4316Z"/><path fill="url(#paint21_linear_1137_5080)" d="M56.0085 37.4316H54.6125V38.8276H56.0085V37.4316Z"/><defs><linearGradient id="paint0_linear_1137_5080" x1="44.941" x2="31.414" y1="21.085" y2="75.924" gradientUnits="userSpaceOnUse"><stop offset=".03" stop-color="#B0905A"/><stop offset="1" stop-color="#8E5B00"/></linearGradient><linearGradient id="paint1_linear_1137_5080" x1="44.941" x2="31.414" y1="21.085" y2="75.924" gradientUnits="userSpaceOnUse"><stop offset=".03" stop-color="#B0905A"/><stop offset="1" stop-color="#8E5B00"/></linearGradient><linearGradient id="paint2_linear_1137_5080" x1="18.236" x2="17.366" y1="22.908" y2="25.795" gradientUnits="userSpaceOnUse"><stop offset=".03" stop-color="#B0905A"/><stop offset="1" stop-color="#8E5B00"/></linearGradient><linearGradient id="paint3_linear_1137_5080" x1="18.236" x2="17.366" y1="22.908" y2="25.795" gradientUnits="userSpaceOnUse"><stop offset=".03" stop-color="#B0905A"/><stop offset="1" stop-color="#8E5B00"/></linearGradient><linearGradient id="paint4_linear_1137_5080" x1="56.202" x2="54.12" y1="44.512" y2="51.419" gradientUnits="userSpaceOnUse"><stop offset=".03" stop-color="#B0905A"/><stop offset="1" stop-color="#8E5B00"/></linearGradient><linearGradient id="paint5_linear_1137_5080" x1="56.202" x2="54.12" y1="44.512" y2="51.419" gradientUnits="userSpaceOnUse"><stop offset=".03" stop-color="#B0905A"/><stop offset="1" stop-color="#8E5B00"/></linearGradient><linearGradient id="paint6_linear_1137_5080" x1="18.192" x2="17.715" y1="30.248" y2="31.831" gradientUnits="userSpaceOnUse"><stop offset=".03" stop-color="#B0905A"/><stop offset="1" stop-color="#8E5B00"/></linearGradient><linearGradient id="paint7_linear_1137_5080" x1="18.192" x2="17.715" y1="30.248" y2="31.831" gradientUnits="userSpaceOnUse"><stop offset=".03" stop-color="#B0905A"/><stop offset="1" stop-color="#8E5B00"/></linearGradient><linearGradient id="paint8_linear_1137_5080" x1="19.922" x2="18.402" y1="45.637" y2="49.748" gradientUnits="userSpaceOnUse"><stop offset=".03" stop-color="#B0905A"/><stop offset="1" stop-color="#8E5B00"/></linearGradient><linearGradient id="paint9_linear_1137_5080" x1="19.922" x2="18.402" y1="45.637" y2="49.748" gradientUnits="userSpaceOnUse"><stop offset=".03" stop-color="#B0905A"/><stop offset="1" stop-color="#8E5B00"/></linearGradient><linearGradient id="paint10_linear_1137_5080" x1="18.192" x2="15.994" y1="37.132" y2="39.918" gradientUnits="userSpaceOnUse"><stop offset=".03" stop-color="#B0905A"/><stop offset="1" stop-color="#8E5B00"/></linearGradient><linearGradient id="paint11_linear_1137_5080" x1="18.192" x2="15.994" y1="37.132" y2="39.918" gradientUnits="userSpaceOnUse"><stop offset=".03" stop-color="#B0905A"/><stop offset="1" stop-color="#8E5B00"/></linearGradient><linearGradient id="paint12_linear_1137_5080" x1="36.791" x2="33.797" y1="33.7" y2="36.563" gradientUnits="userSpaceOnUse"><stop offset=".03" stop-color="#B0905A"/><stop offset="1" stop-color="#8E5B00"/></linearGradient><linearGradient id="paint13_linear_1137_5080" x1="36.791" x2="33.797" y1="33.7" y2="36.563" gradientUnits="userSpaceOnUse"><stop offset=".03" stop-color="#B0905A"/><stop offset="1" stop-color="#8E5B00"/></linearGradient><linearGradient id="paint14_linear_1137_5080" x1="39.43" x2="37.748" y1="23.799" y2="28.823" gradientUnits="userSpaceOnUse"><stop offset=".03" stop-color="#B0905A"/><stop offset="1" stop-color="#8E5B00"/></linearGradient><linearGradient id="paint15_linear_1137_5080" x1="39.43" x2="37.748" y1="23.799" y2="28.823" gradientUnits="userSpaceOnUse"><stop offset=".03" stop-color="#B0905A"/><stop offset="1" stop-color="#8E5B00"/></linearGradient><linearGradient id="paint16_linear_1137_5080" x1="36.027" x2="33.733" y1="44.177" y2="49.166" gradientUnits="userSpaceOnUse"><stop offset=".03" stop-color="#B0905A"/><stop offset="1" stop-color="#8E5B00"/></linearGradient><linearGradient id="paint17_linear_1137_5080" x1="36.027" x2="33.733" y1="44.177" y2="49.166" gradientUnits="userSpaceOnUse"><stop offset=".03" stop-color="#B0905A"/><stop offset="1" stop-color="#8E5B00"/></linearGradient><linearGradient id="paint18_linear_1137_5080" x1="55.208" x2="52.291" y1="27.613" y2="31.918" gradientUnits="userSpaceOnUse"><stop offset=".03" stop-color="#B0905A"/><stop offset="1" stop-color="#8E5B00"/></linearGradient><linearGradient id="paint19_linear_1137_5080" x1="55.208" x2="52.291" y1="27.613" y2="31.918" gradientUnits="userSpaceOnUse"><stop offset=".03" stop-color="#B0905A"/><stop offset="1" stop-color="#8E5B00"/></linearGradient><linearGradient id="paint20_linear_1137_5080" x1="55.513" x2="55.036" y1="37.693" y2="39.276" gradientUnits="userSpaceOnUse"><stop offset=".03" stop-color="#B0905A"/><stop offset="1" stop-color="#8E5B00"/></linearGradient><linearGradient id="paint21_linear_1137_5080" x1="55.513" x2="55.036" y1="37.693" y2="39.276" gradientUnits="userSpaceOnUse"><stop offset=".03" stop-color="#B0905A"/><stop offset="1" stop-color="#8E5B00"/></linearGradient></defs></svg>