<svg width="53" height="52" viewBox="0 0 53 52" fill="none" xmlns="http://www.w3.org/2000/svg">
<g clip-path="url(#clip0_1137_5036)">
<path d="M38.2716 41.0756H40.4202C42.2466 41.0756 43.6432 39.6789 43.6432 37.8526V35.7039C43.6432 33.8776 42.2466 32.481 40.4202 32.481H38.2716C36.4452 32.481 35.0486 33.8776 35.0486 35.7039V37.8526C35.0486 39.6789 36.4452 41.0756 38.2716 41.0756ZM37.1972 35.7039C37.1972 35.0593 37.627 34.6296 38.2716 34.6296H40.4202C41.0648 34.6296 41.4945 35.0593 41.4945 35.7039V37.8526C41.4945 38.4972 41.0648 38.9269 40.4202 38.9269H38.2716C37.627 38.9269 37.1972 38.4972 37.1972 37.8526V35.7039Z" fill="url(#paint0_linear_1137_5036)"/>
<path d="M12.4884 41.0756H14.637C16.4634 41.0756 17.86 39.6789 17.86 37.8526V35.7039C17.86 33.8776 16.4634 32.481 14.637 32.481H12.4884C10.662 32.481 9.26538 33.8776 9.26538 35.7039V37.8526C9.26538 39.6789 10.662 41.0756 12.4884 41.0756ZM11.414 35.7039C11.414 35.0593 11.8438 34.6296 12.4884 34.6296H14.637C15.2816 34.6296 15.7113 35.0593 15.7113 35.7039V37.8526C15.7113 38.4972 15.2816 38.9269 14.637 38.9269H12.4884C11.8438 38.9269 11.414 38.4972 11.414 37.8526V35.7039Z" fill="url(#paint1_linear_1137_5036)"/>
<path d="M47.941 7.77078C47.941 7.66335 47.941 5.51469 47.941 5.62212C47.941 2.61401 45.5775 0.250488 42.5694 0.250488H10.3396C7.33148 0.250488 4.96796 2.61401 4.96796 5.62212C4.96796 5.72956 4.96796 7.87821 4.96796 7.77078C2.60444 7.77078 0.670654 9.70457 0.670654 12.0681V20.6627C0.670654 21.3073 1.10039 21.737 1.74498 21.737C2.38958 21.737 2.81931 21.3073 2.81931 20.6627V12.0681C2.81931 10.8863 3.7862 9.91943 4.96796 9.91943V26.0343V40.0006C4.96796 42.1492 6.25716 44.083 8.19094 44.9425V48.5952C8.19094 50.4216 9.58757 51.8182 11.4139 51.8182H13.5626C15.3889 51.8182 16.7856 50.4216 16.7856 48.5952V45.3722H35.0491V48.5952C35.0491 50.4216 36.4457 51.8182 38.2721 51.8182H40.4208C42.2471 51.8182 43.6437 50.4216 43.6437 48.5952V45.2648C46.1147 44.7276 47.941 42.579 47.941 40.0006V26.0343V9.91943C49.1228 9.91943 50.0897 10.8863 50.0897 12.0681V20.6627C50.0897 21.3073 50.5194 21.737 51.164 21.737C51.8086 21.737 52.2384 21.3073 52.2384 20.6627V12.0681C52.2384 9.70457 50.3046 7.77078 47.941 7.77078ZM7.11662 7.77078H25.3802V24.96H7.11662V7.77078ZM14.6369 48.5952C14.6369 49.2398 14.2072 49.6695 13.5626 49.6695H11.4139C10.7693 49.6695 10.3396 49.2398 10.3396 48.5952V45.3722H14.6369V48.5952ZM41.4951 48.5952C41.4951 49.2398 41.0654 49.6695 40.4208 49.6695H38.2721C37.6275 49.6695 37.1978 49.2398 37.1978 48.5952V45.3722H41.4951V48.5952ZM45.7924 40.0006C45.7924 41.8269 44.3958 43.2236 42.5694 43.2236H36.1234H15.7112H10.3396C8.51324 43.2236 7.11662 41.8269 7.11662 40.0006V27.1087H45.7924V40.0006ZM45.7924 24.96H27.5288V7.77078H45.7924V24.96ZM7.11662 5.62212C7.11662 3.79577 8.51324 2.39914 10.3396 2.39914H42.5694C44.3958 2.39914 45.7924 3.79577 45.7924 5.62212H7.11662Z" fill="url(#paint2_linear_1137_5036)"/>
<path d="M22.1573 35.7038H30.752C31.3965 35.7038 31.8263 35.2741 31.8263 34.6295C31.8263 33.9849 31.3965 33.5552 30.752 33.5552H22.1573C21.5127 33.5552 21.083 33.9849 21.083 34.6295C21.083 35.2741 21.5127 35.7038 22.1573 35.7038Z" fill="url(#paint3_linear_1137_5036)"/>
<path d="M22.1571 40.0007H30.7517C31.3963 40.0007 31.826 39.571 31.826 38.9264C31.826 38.2818 31.3963 37.8521 30.7517 37.8521H22.1571C21.5125 37.8521 21.0828 38.2818 21.0828 38.9264C21.0828 39.571 21.5125 40.0007 22.1571 40.0007Z" fill="url(#paint4_linear_1137_5036)"/>
</g>
<defs>
<linearGradient id="paint0_linear_1137_5036" x1="40.5952" y1="34.0907" x2="37.6577" y2="43.8381" gradientUnits="userSpaceOnUse">
<stop offset="0.0300935" stop-color="#B0905A"/>
<stop offset="1" stop-color="#8E5B00"/>
</linearGradient>
<linearGradient id="paint1_linear_1137_5036" x1="14.812" y1="34.0907" x2="11.8745" y2="43.8381" gradientUnits="userSpaceOnUse">
<stop offset="0.0300935" stop-color="#B0905A"/>
<stop offset="1" stop-color="#8E5B00"/>
</linearGradient>
<linearGradient id="paint2_linear_1137_5036" x1="33.9506" y1="9.90886" x2="16.3251" y2="68.3935" gradientUnits="userSpaceOnUse">
<stop offset="0.0300935" stop-color="#B0905A"/>
<stop offset="1" stop-color="#8E5B00"/>
</linearGradient>
<linearGradient id="paint3_linear_1137_5036" x1="28.0163" y1="33.9576" x2="27.8567" y2="36.6062" gradientUnits="userSpaceOnUse">
<stop offset="0.0300935" stop-color="#B0905A"/>
<stop offset="1" stop-color="#8E5B00"/>
</linearGradient>
<linearGradient id="paint4_linear_1137_5036" x1="28.0161" y1="38.2545" x2="27.8565" y2="40.903" gradientUnits="userSpaceOnUse">
<stop offset="0.0300935" stop-color="#B0905A"/>
<stop offset="1" stop-color="#8E5B00"/>
</linearGradient>
<clipPath id="clip0_1137_5036">
<rect width="51.5677" height="51.5677" fill="white" transform="translate(0.670898 0.250244)"/>
</clipPath>
</defs>
</svg>
